<svg host="65bd71144e" xmlns="http://www.w3.org/2000/svg" style="background: transparent; background-color: transparent;" xmlns:xlink="http://www.w3.org/1999/xlink" version="1.1" width="535px" height="430px" viewBox="-0.5 -0.5 535 430" content="&lt;mxfile&gt;&lt;diagram name=&quot;Сторінка-1&quot; id=&quot;G3wV411230ES61kCrnQ1&quot;&gt;7Vpbb6M4FP41SLsPRRib22OTtjMrzUodVdqdeaoccBNUgrPgtMn++rXBJmCThDSXVp1NH8o5NrY55zsXH9uC4/nqS4EXsz9pQjLLdZKVBW8s13X9KOD/BGddc0AQRjVnWqRJzXM2jIf0XyI7Ku4yTUgpeTWLUZqxdNFlxjTPScw6PFwU9LXb7YlmSYexwFNiMB5inJncv9OEzSQX+NGm4StJpzM5dejKL57g+Hla0GUu58tpTuqWOW6GqRnlDCf0tSUMeGvBcUEpq5/mqzHJhFy7Ervb0tosuSA5G/KCG7j1Ky84W8rvlitjayWIBU1zRorbFz6okCmw4OgpzbIxzWjB6ZIV9JlIavRCCpZyKX7DE5Ld0zJlKc15rwlljM55h+abHU4kuJyRRBI4S6eia0zEfJwxY/NMTqiGvZZ9GF3UYy3EKuerqUChTTKOhEL0s5OUQ7K0y3jGJ35eP1a0eKVardIo5BxTaFKOYk6yarGkEL8QOiesWPMusvXKdyUq1orhSUG+trDjSGjPWrDxJQ9LuE6bwTd64w9Sdf1qhGCAGgUkF70CKBc4TvPpN/LEpCaGi6SxPzxREzm7RRU5oSYqBG3PFJays7awEDxeWG4Q9AjLz5iANeXf25aa/8+SqoarsvJR17wDRItVJSbVzp+m8n810KR3lJ7+vvPXoxWMxpY3HlvBjSXgUA/Bv2OiD8t59RIVW9Mx1w3r2o2yqaxSrmFG8zRJxMuj11nKyAMHghjplRsT51U+rLFOrmeG01wYZkXvw1G/aW2gut+4LoOGcL/pkDy5FhGFU5Uz70iYf1qx/iGEYgeeon9KIVXEzapDrRW1StmP1vPP1vPmFUGst4p8h4BLuixiomGe4WJKmMYkSScS7lSE1+PCFK8gGWbpSzd+9ilHznAvAkvLMwDg2SiEm5/XdRQAOTbyW7+gO0X9xXLUdtTTJnI9Wx/aBa4NoDm1GrqWmzF0ha5GUAMBF50LcOANgAM7AUeySbUI5TY+PQbDwIaghTAtVIXI9nyz+WAAAmQ7Jo4HznJCLIbOybB4rOfbDcTPjTru+Vy7rXEdESfzfKEN/B5ovYMbDFVGeTT0QAd6tjcUfNJ7/h95f038DdgyXRJ/v7b/cyI79JzND5wHf9Cxo3aCCdF74Q+6aD/+PkothRU4L9OS0aK080X+uKEfwdlKKp6nOQcEzZJK5JmgbMosR5VUoGO6A24tD5Ls8Qd92znb22nWgrgnRcqX1+yr2+n9QUmVoPTBTNWYPo1z7lIhiN2ln7ZXgVFoepUG0nu9yrHuAkXA1jZwHkCDXMJbTBUO2LH1FUk/ivmWvB/OHmuJlIpUJepzmS/QNARV3a9lvqjHfOEprBe92Xrt4UnhIda7d2/eZ737bPUAzXWsVwH6vazX5ZvssPkLfA0oys+fIeqqmLIFF7RgMzql3DxuN9zGtGSluzrmiJfFS2Ot3UJpD6qANTwmdI5TbhLyhJdV7ddUtuEktlZ3RdH4Ds/TTEzylWQvRPSTDfLoDQBJm1NnwoGNmmMts8M+oG4pE+zPlfusYhDGt+S97oUw7gX6IYd7vlQyMlPJ79DA+fazgf342X86UAFJTga6wHJPFVJQ4GieQh0yt0KK37NNOUlIiQYcFHzkLCDG4nimyuGbxy3pe0EZlqu8ig47D9yRECBXS9mUNV7iiBSB3RlBv+c/0pXvTBAOLRucJr3XzvTaUazXNQ5wtG5PMlEbyxF+dbheD6sjxhkuyzTu6rYrRmR17zdYLiR8e+GYwZm3jFxRrugkkCBEHYxEAB2MkrfpYqvYL1TGQQHU92Uo9GzHLOwcWri5QnpJEiHNK5wuoCK1dWlh6gYYqPoIAbXnPoaBkR23Vhzt1krg+BcLqAiY9zDGn1HKyNM2OJ53ubQFuT1HfL7zh7h0Ev/2Hf6uLp18GLEHpxK7nm8glSefXuyc3Fzaqz3O5lYkvP0P&lt;/diagram&gt;&lt;/mxfile&gt;">
    <defs>
        <style xmlns="http://www.w3.org/1999/xhtml" id="MJX-SVG-styles">
            mjx-container[jax="SVG"] {
  direction: ltr;
}

mjx-container[jax="SVG"] &gt; svg {
  overflow: visible;
  min-height: 1px;
  min-width: 1px;
}

mjx-container[jax="SVG"] &gt; svg a {
  fill: blue;
  stroke: blue;
}

mjx-container[jax="SVG"][display="true"] {
  display: block;
  text-align: center;
  margin: 1em 0;
}

mjx-container[jax="SVG"][display="true"][width="full"] {
  display: flex;
}

mjx-container[jax="SVG"][justify="left"] {
  text-align: left;
}

mjx-container[jax="SVG"][justify="right"] {
  text-align: right;
}

g[data-mml-node="merror"] &gt; g {
  fill: red;
  stroke: red;
}

g[data-mml-node="merror"] &gt; rect[data-background] {
  fill: yellow;
  stroke: none;
}

g[data-mml-node="mtable"] &gt; line[data-line], svg[data-table] &gt; g &gt; line[data-line] {
  stroke-width: 70px;
  fill: none;
}

g[data-mml-node="mtable"] &gt; rect[data-frame], svg[data-table] &gt; g &gt; rect[data-frame] {
  stroke-width: 70px;
  fill: none;
}

g[data-mml-node="mtable"] &gt; .mjx-dashed, svg[data-table] &gt; g &gt; .mjx-dashed {
  stroke-dasharray: 140;
}

g[data-mml-node="mtable"] &gt; .mjx-dotted, svg[data-table] &gt; g &gt; .mjx-dotted {
  stroke-linecap: round;
  stroke-dasharray: 0,140;
}

g[data-mml-node="mtable"] &gt; g &gt; svg {
  overflow: visible;
}

[jax="SVG"] mjx-tool {
  display: inline-block;
  position: relative;
  width: 0;
  height: 0;
}

[jax="SVG"] mjx-tool &gt; mjx-tip {
  position: absolute;
  top: 0;
  left: 0;
}

mjx-tool &gt; mjx-tip {
  display: inline-block;
  padding: .2em;
  border: 1px solid #888;
  font-size: 70%;
  background-color: #F8F8F8;
  color: black;
  box-shadow: 2px 2px 5px #AAAAAA;
}

g[data-mml-node="maction"][data-toggle] {
  cursor: pointer;
}

mjx-status {
  display: block;
  position: fixed;
  left: 1em;
  bottom: 1em;
  min-width: 25%;
  padding: .2em .4em;
  border: 1px solid #888;
  font-size: 90%;
  background-color: #F8F8F8;
  color: black;
}

foreignObject[data-mjx-xml] {
  font-family: initial;
  line-height: normal;
  overflow: visible;
}

mjx-container[jax="SVG"] path[data-c], mjx-container[jax="SVG"] use[data-c] {
  stroke-width: 3;
}
        </style>
    </defs>
    <g>
        <g>
            <rect x="280" y="54" width="100" height="60" fill="none" stroke="none" pointer-events="all"/>
            <path d="M 310 54 L 350 84 L 310 114 Z" fill="#000000" stroke="#000000" stroke-width="3" stroke-miterlimit="10" pointer-events="all" style="fill: light-dark(rgb(0, 0, 0), rgb(255, 255, 255)); stroke: light-dark(rgb(0, 0, 0), rgb(255, 255, 255));"/>
            <path d="M 280 84 L 310 84 M 340 59 L 340 54 L 350 54 L 350 114 L 360 114 L 360 109 M 350 84 L 380 84" fill="none" stroke="#000000" stroke-width="3" stroke-miterlimit="10" pointer-events="all" style="stroke: light-dark(rgb(0, 0, 0), rgb(255, 255, 255));"/>
        </g>
        <g/>
        <g>
            <rect x="1" y="62.5" width="169" height="43" fill="none" stroke="none" pointer-events="all"/>
        </g>
        <g>
            <g transform="translate(-0.5 -0.5)">
                <switch>
                    <foreignObject style="overflow: visible; text-align: left;" pointer-events="none" width="100%" height="100%" requiredFeatures="http://www.w3.org/TR/SVG11/feature#Extensibility">
                        <div xmlns="http://www.w3.org/1999/xhtml" style="display: flex; align-items: unsafe center; justify-content: unsafe flex-start; width: 164px; height: 1px; padding-top: 84px; margin-left: 6px;">
                            <div style="box-sizing: border-box; font-size: 0; text-align: left; color: #000000; ">
                                <div style="display: inline-block; font-size: 12px; font-family: &quot;Helvetica&quot;; color: light-dark(#000000, #ffffff); line-height: 1.2; pointer-events: all; white-space: normal; word-wrap: normal; ">
                                    <font style="font-size: 34px;">
                                        <b style="">
                                            <mjx-container class="MathJax" jax="SVG">
                                                <svg xmlns="http://www.w3.org/2000/svg" width="3.938ex" height="1.92ex" role="img" focusable="false" viewBox="0 -683 1740.8 848.6" xmlns:xlink="http://www.w3.org/1999/xlink" style="vertical-align: -0.375ex;">
                                                    <defs>
                                                        <path id="MJX-181-TEX-I-1D449" d="M52 648Q52 670 65 683H76Q118 680 181 680Q299 680 320 683H330Q336 677 336 674T334 656Q329 641 325 637H304Q282 635 274 635Q245 630 242 620Q242 618 271 369T301 118L374 235Q447 352 520 471T595 594Q599 601 599 609Q599 633 555 637Q537 637 537 648Q537 649 539 661Q542 675 545 679T558 683Q560 683 570 683T604 682T668 681Q737 681 755 683H762Q769 676 769 672Q769 655 760 640Q757 637 743 637Q730 636 719 635T698 630T682 623T670 615T660 608T652 599T645 592L452 282Q272 -9 266 -16Q263 -18 259 -21L241 -22H234Q216 -22 216 -15Q213 -9 177 305Q139 623 138 626Q133 637 76 637H59Q52 642 52 648Z"/>
                                                        <path id="MJX-181-TEX-I-1D436" d="M50 252Q50 367 117 473T286 641T490 704Q580 704 633 653Q642 643 648 636T656 626L657 623Q660 623 684 649Q691 655 699 663T715 679T725 690L740 705H746Q760 705 760 698Q760 694 728 561Q692 422 692 421Q690 416 687 415T669 413H653Q647 419 647 422Q647 423 648 429T650 449T651 481Q651 552 619 605T510 659Q484 659 454 652T382 628T299 572T226 479Q194 422 175 346T156 222Q156 108 232 58Q280 24 350 24Q441 24 512 92T606 240Q610 253 612 255T628 257Q648 257 648 248Q648 243 647 239Q618 132 523 55T319 -22Q206 -22 128 53T50 252Z"/>
                                                    </defs>
                                                    <g stroke="currentColor" fill="currentColor" stroke-width="0" transform="scale(1,-1)">
                                                        <g data-mml-node="math">
                                                            <g data-mml-node="mstyle">
                                                                <g data-mml-node="msub">
                                                                    <g data-mml-node="mi">
                                                                        <use data-c="1D449" xlink:href="#MJX-181-TEX-I-1D449"/>
                                                                    </g>
                                                                    <g data-mml-node="mrow" transform="translate(616,-150) scale(0.707)">
                                                                        <g data-mml-node="mi">
                                                                            <use data-c="1D436" xlink:href="#MJX-181-TEX-I-1D436"/>
                                                                        </g>
                                                                        <g data-mml-node="mi" transform="translate(760,0)">
                                                                            <use data-c="1D436" xlink:href="#MJX-181-TEX-I-1D436"/>
                                                                        </g>
                                                                    </g>
                                                                </g>
                                                            </g>
                                                        </g>
                                                    </g>
                                                </svg>
                                            </mjx-container>
                                        </b>
                                    </font>
                                </div>
                            </div>
                        </div>
                    </foreignObject>
                    <text x="6" y="88" fill="light-dark(#000000, #ffffff)" font-family="&quot;Helvetica&quot;" font-size="12px">
                        `V_{C\C}`
                    </text>
                </switch>
            </g>
        </g>
        <g>
            <path d="M 1 62.5 L 127.75 62.5" fill="none" stroke="#000000" stroke-width="3" stroke-miterlimit="10" pointer-events="stroke" style="stroke: light-dark(rgb(0, 0, 0), rgb(255, 255, 255));"/>
        </g>
        <g>
            <path d="M 1 105.5 L 127.75 105.5" fill="none" stroke="#000000" stroke-width="3" stroke-miterlimit="10" pointer-events="stroke" style="stroke: light-dark(rgb(0, 0, 0), rgb(255, 255, 255));"/>
        </g>
        <g>
            <path d="M 1 105.5 L 1 62.5" fill="none" stroke="#000000" stroke-width="3" stroke-miterlimit="10" pointer-events="stroke" style="stroke: light-dark(rgb(0, 0, 0), rgb(255, 255, 255));"/>
        </g>
        <g>
            <path d="M 127.75 62.5 L 170 84" fill="none" stroke="#000000" stroke-width="3" stroke-miterlimit="10" pointer-events="stroke" style="stroke: light-dark(rgb(0, 0, 0), rgb(255, 255, 255));"/>
        </g>
        <g>
            <path d="M 127.75 105.5 L 170 84" fill="none" stroke="#000000" stroke-width="3" stroke-miterlimit="10" pointer-events="stroke" style="stroke: light-dark(rgb(0, 0, 0), rgb(255, 255, 255));"/>
        </g>
        <g>
            <ellipse cx="403.05" cy="324" rx="40.90909090909091" ry="40.90909090909091" fill="#ffffff" stroke="#000000" stroke-width="3" pointer-events="all" style="fill: light-dark(#ffffff, var(--ge-dark-color, #121212)); stroke: light-dark(rgb(0, 0, 0), rgb(255, 255, 255));"/>
            <path d="M 389.41 301.27 L 389.41 346.73" fill="#ffffff" stroke="#000000" stroke-width="1.82" stroke-miterlimit="10" pointer-events="all" style="fill: light-dark(#ffffff, var(--ge-dark-color, #121212)); stroke: light-dark(rgb(0, 0, 0), rgb(255, 255, 255));"/>
            <rect x="353.05" y="274" width="0" height="0" fill="none" stroke="#000000" stroke-width="3" pointer-events="all" style="stroke: light-dark(rgb(0, 0, 0), rgb(255, 255, 255));"/>
            <path d="M 353.05 324 L 389.41 324" fill="#ffffff" stroke="#000000" stroke-width="3" stroke-miterlimit="10" pointer-events="all" style="fill: light-dark(#ffffff, var(--ge-dark-color, #121212)); stroke: light-dark(rgb(0, 0, 0), rgb(255, 255, 255));"/>
            <path d="M 389.41 310.36 L 416.68 285.36 L 416.68 274" fill="none" stroke="#000000" stroke-width="3" stroke-miterlimit="10" pointer-events="all" style="stroke: light-dark(rgb(0, 0, 0), rgb(255, 255, 255));"/>
            <path d="M 389.41 337.64 L 416.68 362.64 L 416.68 374" fill="none" stroke="#000000" stroke-width="3" stroke-miterlimit="10" pointer-events="all" style="stroke: light-dark(rgb(0, 0, 0), rgb(255, 255, 255));"/>
            <rect x="353.05" y="274" width="0" height="0" fill="none" stroke="#000000" stroke-width="3" pointer-events="all" style="stroke: light-dark(rgb(0, 0, 0), rgb(255, 255, 255));"/>
            <path d="M 402.14 354.91 L 415.77 361.73 L 408.05 349 Z" fill="#ffffff" stroke="#000000" stroke-width="3" stroke-miterlimit="10" pointer-events="all" style="fill: light-dark(#ffffff, var(--ge-dark-color, #121212)); stroke: light-dark(rgb(0, 0, 0), rgb(255, 255, 255));"/>
        </g>
        <g>
            <path d="M 417 214 L 416.68 274" fill="none" stroke="#000000" stroke-width="3" stroke-miterlimit="10" pointer-events="stroke" style="stroke: light-dark(rgb(0, 0, 0), rgb(255, 255, 255));"/>
        </g>
        <g>
            <rect x="394" y="398" width="45" height="30" fill="none" stroke="none" pointer-events="all"/>
            <path d="M 394 408 L 416.5 428 L 439 408 Z" fill="#ffffff" stroke="#000000" stroke-width="3" stroke-miterlimit="10" pointer-events="all" style="fill: light-dark(#ffffff, var(--ge-dark-color, #121212)); stroke: light-dark(rgb(0, 0, 0), rgb(255, 255, 255));"/>
            <path d="M 416.5 398 L 416.5 408" fill="none" stroke="#000000" stroke-width="3" stroke-miterlimit="10" pointer-events="all" style="stroke: light-dark(rgb(0, 0, 0), rgb(255, 255, 255));"/>
        </g>
        <g>
            <path d="M 416.5 398 L 416.68 374" fill="none" stroke="#000000" stroke-width="3" stroke-miterlimit="10" pointer-events="stroke" style="stroke: light-dark(rgb(0, 0, 0), rgb(255, 255, 255));"/>
        </g>
        <g>
            <path d="M 170 84 L 280 84" fill="none" stroke="#000000" stroke-width="3" stroke-miterlimit="10" pointer-events="stroke" style="stroke: light-dark(rgb(0, 0, 0), rgb(255, 255, 255));"/>
        </g>
        <g>
            <rect x="439" y="309" width="60" height="30" fill="none" stroke="none" pointer-events="all"/>
        </g>
        <g>
            <g transform="translate(-0.5 -0.5)">
                <switch>
                    <foreignObject style="overflow: visible; text-align: left;" pointer-events="none" width="100%" height="100%" requiredFeatures="http://www.w3.org/TR/SVG11/feature#Extensibility">
                        <div xmlns="http://www.w3.org/1999/xhtml" style="display: flex; align-items: unsafe center; justify-content: unsafe center; width: 58px; height: 1px; padding-top: 324px; margin-left: 440px;">
                            <div style="box-sizing: border-box; font-size: 0; text-align: center; color: #000000; ">
                                <div style="display: inline-block; font-size: 23px; font-family: &quot;Helvetica&quot;; color: light-dark(#000000, #ffffff); line-height: 1.2; pointer-events: all; font-weight: bold; white-space: normal; word-wrap: normal; ">
                                    Q3
                                </div>
                            </div>
                        </div>
                    </foreignObject>
                    <text x="469" y="331" fill="light-dark(#000000, #ffffff)" font-family="&quot;Helvetica&quot;" font-size="23px" text-anchor="middle" font-weight="bold">
                        Q3
                    </text>
                </switch>
            </g>
        </g>
        <g>
            <rect x="367" y="134" width="100" height="60" fill="none" stroke="none" transform="rotate(-90,417,164)" pointer-events="all"/>
            <path d="M 367 164 L 412 164 M 422 134 L 422 194 M 412 134 L 412 194 M 422 164 L 467 164" fill="none" stroke="#000000" stroke-width="3" stroke-miterlimit="10" transform="rotate(-90,417,164)" pointer-events="all" style="stroke: light-dark(rgb(0, 0, 0), rgb(255, 255, 255));"/>
        </g>
        <g>
            <path d="M 380 84 L 417 84 L 417 114" fill="none" stroke="#000000" stroke-width="3" stroke-miterlimit="10" pointer-events="stroke" style="stroke: light-dark(rgb(0, 0, 0), rgb(255, 255, 255));"/>
        </g>
        <g>
            <path d="M 441.84 195.6 L 441.97 254.03" fill="none" stroke="#b20000" stroke-width="4" stroke-miterlimit="10" pointer-events="stroke" style="stroke: light-dark(rgb(178, 0, 0), rgb(255, 172, 172));"/>
            <path d="M 441.99 261.53 L 436.97 251.54 L 441.97 254.03 L 446.97 251.52 Z" fill="#b20000" stroke="#b20000" stroke-width="4" stroke-miterlimit="10" pointer-events="all" style="fill: light-dark(rgb(178, 0, 0), rgb(255, 172, 172)); stroke: light-dark(rgb(178, 0, 0), rgb(255, 172, 172));"/>
        </g>
        <g>
            <rect x="300" y="0" width="60" height="30" fill="none" stroke="none" pointer-events="all"/>
        </g>
        <g>
            <g transform="translate(-0.5 -0.5)">
                <switch>
                    <foreignObject style="overflow: visible; text-align: left;" pointer-events="none" width="100%" height="100%" requiredFeatures="http://www.w3.org/TR/SVG11/feature#Extensibility">
                        <div xmlns="http://www.w3.org/1999/xhtml" style="display: flex; align-items: unsafe center; justify-content: unsafe center; width: 58px; height: 1px; padding-top: 15px; margin-left: 301px;">
                            <div style="box-sizing: border-box; font-size: 0; text-align: center; color: #000000; ">
                                <div style="display: inline-block; font-size: 23px; font-family: &quot;Helvetica&quot;; color: light-dark(#000000, #ffffff); line-height: 1.2; pointer-events: all; font-weight: bold; white-space: normal; word-wrap: normal; ">
                                    D1
                                </div>
                            </div>
                        </div>
                    </foreignObject>
                    <text x="330" y="22" fill="light-dark(#000000, #ffffff)" font-family="&quot;Helvetica&quot;" font-size="23px" text-anchor="middle" font-weight="bold">
                        D1
                    </text>
                </switch>
            </g>
        </g>
        <g>
            <rect x="453" y="149" width="60" height="30" fill="none" stroke="none" pointer-events="all"/>
        </g>
        <g>
            <g transform="translate(-0.5 -0.5)">
                <switch>
                    <foreignObject style="overflow: visible; text-align: left;" pointer-events="none" width="100%" height="100%" requiredFeatures="http://www.w3.org/TR/SVG11/feature#Extensibility">
                        <div xmlns="http://www.w3.org/1999/xhtml" style="display: flex; align-items: unsafe center; justify-content: unsafe center; width: 58px; height: 1px; padding-top: 164px; margin-left: 454px;">
                            <div style="box-sizing: border-box; font-size: 0; text-align: center; color: #000000; ">
                                <div style="display: inline-block; font-size: 23px; font-family: &quot;Helvetica&quot;; color: light-dark(#000000, #ffffff); line-height: 1.2; pointer-events: all; font-weight: bold; white-space: normal; word-wrap: normal; ">
                                    C1
                                </div>
                            </div>
                        </div>
                    </foreignObject>
                    <text x="483" y="171" fill="light-dark(#000000, #ffffff)" font-family="&quot;Helvetica&quot;" font-size="23px" text-anchor="middle" font-weight="bold">
                        C1
                    </text>
                </switch>
            </g>
        </g>
        <g>
            <rect x="467" y="212" width="60" height="30" fill="none" stroke="none" pointer-events="all"/>
        </g>
        <g>
            <g transform="translate(-0.5 -0.5)">
                <switch>
                    <foreignObject style="overflow: visible; text-align: left;" pointer-events="none" width="100%" height="100%" requiredFeatures="http://www.w3.org/TR/SVG11/feature#Extensibility">
                        <div xmlns="http://www.w3.org/1999/xhtml" style="display: flex; align-items: unsafe center; justify-content: unsafe center; width: 58px; height: 1px; padding-top: 227px; margin-left: 468px;">
                            <div style="box-sizing: border-box; font-size: 0; text-align: center; color: #000000; ">
                                <div style="display: inline-block; font-size: 27px; font-family: &quot;Helvetica&quot;; color: light-dark(#000000, #ffffff); line-height: 1.2; pointer-events: all; font-weight: bold; white-space: normal; word-wrap: normal; ">
                                    <mjx-container class="MathJax" jax="SVG">
                                        <svg xmlns="http://www.w3.org/2000/svg" width="5.186ex" height="2.345ex" role="img" focusable="false" viewBox="0 -683 2292.2 1036.5" xmlns:xlink="http://www.w3.org/1999/xlink" style="vertical-align: -0.8ex;">
                                            <defs>
                                                <path id="MJX-182-TEX-I-1D43C" d="M43 1Q26 1 26 10Q26 12 29 24Q34 43 39 45Q42 46 54 46H60Q120 46 136 53Q137 53 138 54Q143 56 149 77T198 273Q210 318 216 344Q286 624 286 626Q284 630 284 631Q274 637 213 637H193Q184 643 189 662Q193 677 195 680T209 683H213Q285 681 359 681Q481 681 487 683H497Q504 676 504 672T501 655T494 639Q491 637 471 637Q440 637 407 634Q393 631 388 623Q381 609 337 432Q326 385 315 341Q245 65 245 59Q245 52 255 50T307 46H339Q345 38 345 37T342 19Q338 6 332 0H316Q279 2 179 2Q143 2 113 2T65 2T43 1Z"/>
                                                <path id="MJX-182-TEX-I-1D450" d="M34 159Q34 268 120 355T306 442Q362 442 394 418T427 355Q427 326 408 306T360 285Q341 285 330 295T319 325T330 359T352 380T366 386H367Q367 388 361 392T340 400T306 404Q276 404 249 390Q228 381 206 359Q162 315 142 235T121 119Q121 73 147 50Q169 26 205 26H209Q321 26 394 111Q403 121 406 121Q410 121 419 112T429 98T420 83T391 55T346 25T282 0T202 -11Q127 -11 81 37T34 159Z"/>
                                                <path id="MJX-182-TEX-N-28" d="M94 250Q94 319 104 381T127 488T164 576T202 643T244 695T277 729T302 750H315H319Q333 750 333 741Q333 738 316 720T275 667T226 581T184 443T167 250T184 58T225 -81T274 -167T316 -220T333 -241Q333 -250 318 -250H315H302L274 -226Q180 -141 137 -14T94 250Z"/>
                                                <path id="MJX-182-TEX-I-1D444" d="M399 -80Q399 -47 400 -30T402 -11V-7L387 -11Q341 -22 303 -22Q208 -22 138 35T51 201Q50 209 50 244Q50 346 98 438T227 601Q351 704 476 704Q514 704 524 703Q621 689 680 617T740 435Q740 255 592 107Q529 47 461 16L444 8V3Q444 2 449 -24T470 -66T516 -82Q551 -82 583 -60T625 -3Q631 11 638 11Q647 11 649 2Q649 -6 639 -34T611 -100T557 -165T481 -194Q399 -194 399 -87V-80ZM636 468Q636 523 621 564T580 625T530 655T477 665Q429 665 379 640Q277 591 215 464T153 216Q153 110 207 59Q231 38 236 38V46Q236 86 269 120T347 155Q372 155 390 144T417 114T429 82T435 55L448 64Q512 108 557 185T619 334T636 468ZM314 18Q362 18 404 39L403 49Q399 104 366 115Q354 117 347 117Q344 117 341 117T337 118Q317 118 296 98T274 52Q274 18 314 18Z"/>
                                                <path id="MJX-182-TEX-N-33" d="M127 463Q100 463 85 480T69 524Q69 579 117 622T233 665Q268 665 277 664Q351 652 390 611T430 522Q430 470 396 421T302 350L299 348Q299 347 308 345T337 336T375 315Q457 262 457 175Q457 96 395 37T238 -22Q158 -22 100 21T42 130Q42 158 60 175T105 193Q133 193 151 175T169 130Q169 119 166 110T159 94T148 82T136 74T126 70T118 67L114 66Q165 21 238 21Q293 21 321 74Q338 107 338 175V195Q338 290 274 322Q259 328 213 329L171 330L168 332Q166 335 166 348Q166 366 174 366Q202 366 232 371Q266 376 294 413T322 525V533Q322 590 287 612Q265 626 240 626Q208 626 181 615T143 592T132 580H135Q138 579 143 578T153 573T165 566T175 555T183 540T186 520Q186 498 172 481T127 463Z"/>
                                                <path id="MJX-182-TEX-N-29" d="M60 749L64 750Q69 750 74 750H86L114 726Q208 641 251 514T294 250Q294 182 284 119T261 12T224 -76T186 -143T145 -194T113 -227T90 -246Q87 -249 86 -250H74Q66 -250 63 -250T58 -247T55 -238Q56 -237 66 -225Q221 -64 221 250T66 725Q56 737 55 738Q55 746 60 749Z"/>
                                            </defs>
                                            <g stroke="currentColor" fill="currentColor" stroke-width="0" transform="scale(1,-1)">
                                                <g data-mml-node="math">
                                                    <g data-mml-node="mstyle">
                                                        <g data-mml-node="msub">
                                                            <g data-mml-node="mi">
                                                                <use data-c="1D43C" xlink:href="#MJX-182-TEX-I-1D43C"/>
                                                            </g>
                                                            <g data-mml-node="mrow" transform="translate(473,-176.7) scale(0.707)">
                                                                <g data-mml-node="mi">
                                                                    <use data-c="1D450" xlink:href="#MJX-182-TEX-I-1D450"/>
                                                                </g>
                                                                <g data-mml-node="mrow" transform="translate(433,0)">
                                                                    <g data-mml-node="mo">
                                                                        <use data-c="28" xlink:href="#MJX-182-TEX-N-28"/>
                                                                    </g>
                                                                    <g data-mml-node="mi" transform="translate(389,0)">
                                                                        <use data-c="1D444" xlink:href="#MJX-182-TEX-I-1D444"/>
                                                                    </g>
                                                                    <g data-mml-node="mn" transform="translate(1180,0)">
                                                                        <use data-c="33" xlink:href="#MJX-182-TEX-N-33"/>
                                                                    </g>
                                                                    <g data-mml-node="mo" transform="translate(1680,0)">
                                                                        <use data-c="29" xlink:href="#MJX-182-TEX-N-29"/>
                                                                    </g>
                                                                </g>
                                                            </g>
                                                        </g>
                                                    </g>
                                                </g>
                                            </g>
                                        </svg>
                                    </mjx-container>
                                </div>
                            </div>
                        </div>
                    </foreignObject>
                    <text x="497" y="235" fill="light-dark(#000000, #ffffff)" font-family="&quot;Helvetica&quot;" font-size="27px" text-anchor="middle" font-weight="bold">
                        `I_{c...
                    </text>
                </switch>
            </g>
        </g>
    </g>
    <switch>
        <g requiredFeatures="http://www.w3.org/TR/SVG11/feature#Extensibility"/>
        <a transform="translate(0,-5)" xlink:href="https://www.drawio.com/doc/faq/svg-export-text-problems" target="_blank">
            <text text-anchor="middle" font-size="10px" x="50%" y="100%">
                Text is not SVG - cannot display
            </text>
        </a>
    </switch>
</svg>
