<svg host="65bd71144e" xmlns="http://www.w3.org/2000/svg" style="background: transparent; background-color: transparent;" xmlns:xlink="http://www.w3.org/1999/xlink" version="1.1" width="586px" height="236px" viewBox="-0.5 -0.5 586 236" content="&lt;mxfile&gt;&lt;diagram id=&quot;92ocgkLB9jfAPPab8vjS&quot; name=&quot;Page-1&quot;&gt;7VxLc6M4EP41PsYlIZ7HsZPMHHarUpvDzpxSxCg2NdhyYdlx9tevBBLmITtgM8jEuDI1qJEEdH/9tR4NIzRd7r/H/nrxNwlwNDJAsB+h+5FhQNd22H9c8iEkhuemknkcBkJ2EDyH/2EhBEK6DQO8KVSkhEQ0XBeFM7Ja4RktyPw4Ju/Fam8kKl517c9xRfA886Oq9N8woAshhbZ3OPEDh/OFuLRriCde+lnlVLBZ+AF5T0XJw6GHEZrGhND0aLmf4ohrT+ol1cDjkbPZjcV4Res0QGbaYudHW/Fw4sboh3zaNQlXFMcPO9YnVxwcockOxzRkCvnLf8XRE9mENCQrdu6VUEqWrEL2YIAVAn+zwIEo+FE451VnmPfKBAu6jErdfhN1KFmnfa35vSz3cw6oMY6YUWNeb7xh9fzoZUO28QxvZHEek+0q4C1pTH5nNkJMUlWQ0Bm/NN7nREJh3zFZYhp/sCri7J3nGWMrbSUQfGchAc33Ax5MUWeRQ4Ks5gsEzrPeD0ZiB8JOR2xmDTZrbDPXBfos5tTwMv786/pPmpGb/yp7AKc1YCOnjFrbrOrAyWrltQBBC2rIHianBhv88zJyJubIuWfHFa2wh6ZFuEkoRviNKtC3DIOAN568L0KKn9f+jPf0zjDIZAnEMlC/kRV9FpeCspzGGkMNu8yOtXFneGNgG0W1K5RuumMTOQq9y6aXqN1C/eaLGG/CDSXxJjt64f0EYcyqpLfEuISrshZ3NDBizkLQGysN1IpjuEa/LaSF0W1LI6N7CirrnNEZ9koqUBE6lKPm9mHrdQHbVpE681lECBMyyQ4TNqliNCbUFzd25wElaL3mqDWKFjMU9gIKe9ltYBaowu+Uh1/Yi/DbXN12Udty5JzTtqVQdhsE4do37htnTKtAdYDapX+4zlH/MHrhH2fMioxyAAHduYhXY1bEWoTrzTGF5fT+FkbRlEQkTtohkPyYPPGx5CatCftjtz0t/rNY9ak8w/F35BxUnym1UJw71mciV/cKj/YJT/QIVf2xv5a80yn7pleFinqocTlUIHRrYCWYY+kwJKYLMidsGPpwkGbkJwZaHCyT2TbeZT5X9MAcvFIKlAAL8Ju/jaiSGiuUfJQCuEM/+ssw4hr9gaMd5vWKng6l51cvHfEIMfFnv9NxdrUCXgXf+GInE67ICqeSx5Ar+f4kZ6fjeOH8wkmpH8+xrAYFU3KNnwRPjCMWJ3bFZdOL5rI9X6+8aC6bi7qtBV0I7JJfO4o5hKH06xYc21KsZYoloeZj0s9d7jqiLgReWeeKqaur0LnRBpeCGqsNQ9y9lrjr2pXNhk4jL6ixejig5VrQ4phaR2lep4MyvA/pz9zxL16FqT0t3e9Fi6TwkSs84ThkD8dDRSpbsQf9mS/keuLFQ1dJSfZ1s4NCCJSjQlvXqDC7n4Gk+kBSNtIc0qwzaErBOweu+ZU7cwbvwGa8k5SqnZ127CKLFgi2wf5MngU8BQnILQEdHGBrCT5XBYIbjkiGAoz6AhKEesCoaSQ0gPEzYpQLVzqw2O1SqZoYwflYHIjxAiy6Cl6UCUE6sIj6jcWBFxtisT2MiaZPfBaWn0yUc2Cy/UrZSQp90a6E1exGasLXHOB7U/DNUym6rvkOPGcWO2Dxi2DRuq7pTo1sp/rrb3/YAH8mHdVyKtlLjgxNn+yktrKrBxXZSzdmAhaegUYLyE6G3ISW7OmVs9M6TU2AJ15XaZ4P2JfcBK+cVd9paoL0mMGFWjKnW82p7diJFOkDwonQl3Uit/qqXbdupGkrJD8xGFafdW2FSAgVNufl/oiGyYF8+b2vWSHD+nPbaPT0bYYY7kCNNwxGxW5IluGoA409T5gbqLHtnIUMohrQiKpj8X5x4xgYZgmRaIBkI0i2HpmPbdshY2yCww8Wp0u2x2zn5X7FC7S4pYcUy6R9ShsbBgRtJzJrTI/o5nNcX+qtcccrLVh2+s44VH2MS7w03nx9qx8vjTuwrPEOXxqHqMY+1zUvEWv5Vo5TfYmsy6/lQKRnnjPkKlxFkJUuW5jnIH1rQGbPk7OHWXfr765pXAMyez4BGdB4ERqRTm5kxcO3htPZ8+GTzejhfw==&lt;/diagram&gt;&lt;/mxfile&gt;">
    <defs>
        <style xmlns="http://www.w3.org/1999/xhtml" id="MJX-SVG-styles">
            mjx-container[jax="SVG"] {
  direction: ltr;
}

mjx-container[jax="SVG"] &gt; svg {
  overflow: visible;
  min-height: 1px;
  min-width: 1px;
}

mjx-container[jax="SVG"] &gt; svg a {
  fill: blue;
  stroke: blue;
}

mjx-container[jax="SVG"][display="true"] {
  display: block;
  text-align: center;
  margin: 1em 0;
}

mjx-container[jax="SVG"][display="true"][width="full"] {
  display: flex;
}

mjx-container[jax="SVG"][justify="left"] {
  text-align: left;
}

mjx-container[jax="SVG"][justify="right"] {
  text-align: right;
}

g[data-mml-node="merror"] &gt; g {
  fill: red;
  stroke: red;
}

g[data-mml-node="merror"] &gt; rect[data-background] {
  fill: yellow;
  stroke: none;
}

g[data-mml-node="mtable"] &gt; line[data-line], svg[data-table] &gt; g &gt; line[data-line] {
  stroke-width: 70px;
  fill: none;
}

g[data-mml-node="mtable"] &gt; rect[data-frame], svg[data-table] &gt; g &gt; rect[data-frame] {
  stroke-width: 70px;
  fill: none;
}

g[data-mml-node="mtable"] &gt; .mjx-dashed, svg[data-table] &gt; g &gt; .mjx-dashed {
  stroke-dasharray: 140;
}

g[data-mml-node="mtable"] &gt; .mjx-dotted, svg[data-table] &gt; g &gt; .mjx-dotted {
  stroke-linecap: round;
  stroke-dasharray: 0,140;
}

g[data-mml-node="mtable"] &gt; g &gt; svg {
  overflow: visible;
}

[jax="SVG"] mjx-tool {
  display: inline-block;
  position: relative;
  width: 0;
  height: 0;
}

[jax="SVG"] mjx-tool &gt; mjx-tip {
  position: absolute;
  top: 0;
  left: 0;
}

mjx-tool &gt; mjx-tip {
  display: inline-block;
  padding: .2em;
  border: 1px solid #888;
  font-size: 70%;
  background-color: #F8F8F8;
  color: black;
  box-shadow: 2px 2px 5px #AAAAAA;
}

g[data-mml-node="maction"][data-toggle] {
  cursor: pointer;
}

mjx-status {
  display: block;
  position: fixed;
  left: 1em;
  bottom: 1em;
  min-width: 25%;
  padding: .2em .4em;
  border: 1px solid #888;
  font-size: 90%;
  background-color: #F8F8F8;
  color: black;
}

foreignObject[data-mjx-xml] {
  font-family: initial;
  line-height: normal;
  overflow: visible;
}

mjx-container[jax="SVG"] path[data-c], mjx-container[jax="SVG"] use[data-c] {
  stroke-width: 3;
}
        </style>
    </defs>
    <g>
        <g>
            <rect x="148.5" y="204" width="45" height="30" fill="none" stroke="none" pointer-events="all"/>
            <path d="M 148.5 214 L 171 234 L 193.5 214 Z" fill="#ffffff" stroke="#000000" stroke-width="3" stroke-miterlimit="10" pointer-events="all" style="fill: light-dark(#ffffff, var(--ge-dark-color, #121212)); stroke: light-dark(rgb(0, 0, 0), rgb(255, 255, 255));"/>
            <path d="M 171 204 L 171 214" fill="none" stroke="#000000" stroke-width="3" stroke-miterlimit="10" pointer-events="all" style="stroke: light-dark(rgb(0, 0, 0), rgb(255, 255, 255));"/>
        </g>
        <g>
            <rect x="261" y="204" width="45" height="30" fill="none" stroke="none" pointer-events="all"/>
            <path d="M 261 214 L 283.5 234 L 306 214 Z" fill="#ffffff" stroke="#000000" stroke-width="3" stroke-miterlimit="10" pointer-events="all" style="fill: light-dark(#ffffff, var(--ge-dark-color, #121212)); stroke: light-dark(rgb(0, 0, 0), rgb(255, 255, 255));"/>
            <path d="M 283.5 204 L 283.5 214" fill="none" stroke="#000000" stroke-width="3" stroke-miterlimit="10" pointer-events="all" style="stroke: light-dark(rgb(0, 0, 0), rgb(255, 255, 255));"/>
        </g>
        <g/>
        <g>
            <rect x="532.56" y="134" width="48.44" height="25" fill="none" stroke="none" pointer-events="all"/>
        </g>
        <g>
            <g transform="translate(-0.5 -0.5)">
                <switch>
                    <foreignObject style="overflow: visible; text-align: left;" pointer-events="none" width="100%" height="100%" requiredFeatures="http://www.w3.org/TR/SVG11/feature#Extensibility">
                        <div xmlns="http://www.w3.org/1999/xhtml" style="display: flex; align-items: unsafe center; justify-content: unsafe flex-start; width: 46px; height: 1px; padding-top: 147px; margin-left: 535px;">
                            <div style="box-sizing: border-box; font-size: 0; text-align: left; color: #000000; ">
                                <div style="display: inline-block; font-size: 23px; font-family: &quot;Helvetica&quot;; color: light-dark(#000000, #ffffff); line-height: 1.2; pointer-events: all; font-weight: bold; white-space: normal; word-wrap: normal; ">
                                    <mjx-container class="MathJax" jax="SVG">
                                        <svg xmlns="http://www.w3.org/2000/svg" width="2.705ex" height="1.885ex" role="img" focusable="false" viewBox="0 -683 1195.6 833" xmlns:xlink="http://www.w3.org/1999/xlink" style="vertical-align: -0.339ex;">
                                            <defs>
                                                <path id="MJX-39-TEX-I-1D445" d="M230 637Q203 637 198 638T193 649Q193 676 204 682Q206 683 378 683Q550 682 564 680Q620 672 658 652T712 606T733 563T739 529Q739 484 710 445T643 385T576 351T538 338L545 333Q612 295 612 223Q612 212 607 162T602 80V71Q602 53 603 43T614 25T640 16Q668 16 686 38T712 85Q717 99 720 102T735 105Q755 105 755 93Q755 75 731 36Q693 -21 641 -21H632Q571 -21 531 4T487 82Q487 109 502 166T517 239Q517 290 474 313Q459 320 449 321T378 323H309L277 193Q244 61 244 59Q244 55 245 54T252 50T269 48T302 46H333Q339 38 339 37T336 19Q332 6 326 0H311Q275 2 180 2Q146 2 117 2T71 2T50 1Q33 1 33 10Q33 12 36 24Q41 43 46 45Q50 46 61 46H67Q94 46 127 49Q141 52 146 61Q149 65 218 339T287 628Q287 635 230 637ZM630 554Q630 586 609 608T523 636Q521 636 500 636T462 637H440Q393 637 386 627Q385 624 352 494T319 361Q319 360 388 360Q466 361 492 367Q556 377 592 426Q608 449 619 486T630 554Z"/>
                                                <path id="MJX-39-TEX-N-34" d="M462 0Q444 3 333 3Q217 3 199 0H190V46H221Q241 46 248 46T265 48T279 53T286 61Q287 63 287 115V165H28V211L179 442Q332 674 334 675Q336 677 355 677H373L379 671V211H471V165H379V114Q379 73 379 66T385 54Q393 47 442 46H471V0H462ZM293 211V545L74 212L183 211H293Z"/>
                                            </defs>
                                            <g stroke="currentColor" fill="currentColor" stroke-width="0" transform="scale(1,-1)">
                                                <g data-mml-node="math">
                                                    <g data-mml-node="mstyle">
                                                        <g data-mml-node="msub">
                                                            <g data-mml-node="mi">
                                                                <use data-c="1D445" xlink:href="#MJX-39-TEX-I-1D445"/>
                                                            </g>
                                                            <g data-mml-node="mrow" transform="translate(792,-150) scale(0.707)">
                                                                <g data-mml-node="mn">
                                                                    <use data-c="34" xlink:href="#MJX-39-TEX-N-34"/>
                                                                </g>
                                                            </g>
                                                        </g>
                                                    </g>
                                                </g>
                                            </g>
                                        </svg>
                                    </mjx-container>
                                </div>
                            </div>
                        </div>
                    </foreignObject>
                    <text x="535" y="153" fill="light-dark(#000000, #ffffff)" font-family="&quot;Helvetica&quot;" font-size="23px" font-weight="bold">
                        `R_{...
                    </text>
                </switch>
            </g>
        </g>
        <g>
            <rect x="503.5" y="94" width="19.38" height="100" fill="none" stroke="none" transform="rotate(90,513.19,144)" pointer-events="all"/>
            <rect x="481.19" y="134.31" width="64" height="19.38" fill="#ffffff" stroke="#000000" stroke-width="3" transform="rotate(90,513.19,144)" pointer-events="all" style="fill: light-dark(#ffffff, var(--ge-dark-color, #121212)); stroke: light-dark(rgb(0, 0, 0), rgb(255, 255, 255));"/>
            <path d="M 463.19 144 L 481.19 144 M 545.19 144 L 563.19 144" fill="none" stroke="#000000" stroke-width="3" stroke-miterlimit="10" transform="rotate(90,513.19,144)" pointer-events="all" style="stroke: light-dark(rgb(0, 0, 0), rgb(255, 255, 255));"/>
        </g>
        <g>
            <rect x="491" y="204" width="45" height="30" fill="none" stroke="none" pointer-events="all"/>
            <path d="M 491 214 L 513.5 234 L 536 214 Z" fill="#ffffff" stroke="#000000" stroke-width="3" stroke-miterlimit="10" pointer-events="all" style="fill: light-dark(#ffffff, var(--ge-dark-color, #121212)); stroke: light-dark(rgb(0, 0, 0), rgb(255, 255, 255));"/>
            <path d="M 513.5 204 L 513.5 214" fill="none" stroke="#000000" stroke-width="3" stroke-miterlimit="10" pointer-events="all" style="stroke: light-dark(rgb(0, 0, 0), rgb(255, 255, 255));"/>
        </g>
        <g/>
        <g>
            <rect x="121" y="114" width="100" height="60" fill="none" stroke="none" transform="rotate(-90,171,144)" pointer-events="all"/>
            <path d="M 121 144 L 166 144 M 176 114 L 176 174 M 166 114 L 166 174 M 176 144 L 221 144" fill="none" stroke="#000000" stroke-width="3" stroke-miterlimit="10" transform="rotate(-90,171,144)" pointer-events="all" style="stroke: light-dark(rgb(0, 0, 0), rgb(255, 255, 255));"/>
        </g>
        <g>
            <rect x="201" y="129" width="50" height="30" fill="none" stroke="none" pointer-events="all"/>
        </g>
        <g>
            <g transform="translate(-0.5 -0.5)">
                <switch>
                    <foreignObject style="overflow: visible; text-align: left;" pointer-events="none" width="100%" height="100%" requiredFeatures="http://www.w3.org/TR/SVG11/feature#Extensibility">
                        <div xmlns="http://www.w3.org/1999/xhtml" style="display: flex; align-items: unsafe center; justify-content: unsafe flex-start; width: 48px; height: 1px; padding-top: 144px; margin-left: 203px;">
                            <div style="box-sizing: border-box; font-size: 0; text-align: left; color: #000000; ">
                                <div style="display: inline-block; font-size: 23px; font-family: &quot;Helvetica&quot;; color: light-dark(#000000, #ffffff); line-height: 1.2; pointer-events: all; font-weight: bold; white-space: normal; word-wrap: normal; ">
                                    <mjx-container class="MathJax" jax="SVG">
                                        <svg xmlns="http://www.w3.org/2000/svg" width="2.605ex" height="1.934ex" role="img" focusable="false" viewBox="0 -705 1151.6 855" xmlns:xlink="http://www.w3.org/1999/xlink" style="vertical-align: -0.339ex;">
                                            <defs>
                                                <path id="MJX-40-TEX-I-1D436" d="M50 252Q50 367 117 473T286 641T490 704Q580 704 633 653Q642 643 648 636T656 626L657 623Q660 623 684 649Q691 655 699 663T715 679T725 690L740 705H746Q760 705 760 698Q760 694 728 561Q692 422 692 421Q690 416 687 415T669 413H653Q647 419 647 422Q647 423 648 429T650 449T651 481Q651 552 619 605T510 659Q484 659 454 652T382 628T299 572T226 479Q194 422 175 346T156 222Q156 108 232 58Q280 24 350 24Q441 24 512 92T606 240Q610 253 612 255T628 257Q648 257 648 248Q648 243 647 239Q618 132 523 55T319 -22Q206 -22 128 53T50 252Z"/>
                                                <path id="MJX-40-TEX-N-31" d="M213 578L200 573Q186 568 160 563T102 556H83V602H102Q149 604 189 617T245 641T273 663Q275 666 285 666Q294 666 302 660V361L303 61Q310 54 315 52T339 48T401 46H427V0H416Q395 3 257 3Q121 3 100 0H88V46H114Q136 46 152 46T177 47T193 50T201 52T207 57T213 61V578Z"/>
                                            </defs>
                                            <g stroke="currentColor" fill="currentColor" stroke-width="0" transform="scale(1,-1)">
                                                <g data-mml-node="math">
                                                    <g data-mml-node="mstyle">
                                                        <g data-mml-node="msub">
                                                            <g data-mml-node="mi">
                                                                <use data-c="1D436" xlink:href="#MJX-40-TEX-I-1D436"/>
                                                            </g>
                                                            <g data-mml-node="mrow" transform="translate(748,-150) scale(0.707)">
                                                                <g data-mml-node="mn">
                                                                    <use data-c="31" xlink:href="#MJX-40-TEX-N-31"/>
                                                                </g>
                                                            </g>
                                                        </g>
                                                    </g>
                                                </g>
                                            </g>
                                        </svg>
                                    </mjx-container>
                                </div>
                            </div>
                        </div>
                    </foreignObject>
                    <text x="203" y="151" fill="light-dark(#000000, #ffffff)" font-family="&quot;Helvetica&quot;" font-size="23px" font-weight="bold">
                        `C_{...
                    </text>
                </switch>
            </g>
        </g>
        <g>
            <rect x="233.5" y="114" width="100" height="60" fill="none" stroke="none" transform="rotate(-90,283.5,144)" pointer-events="all"/>
            <path d="M 233.5 144 L 278.5 144 M 288.5 114 L 288.5 174 M 278.5 114 L 278.5 174 M 288.5 144 L 333.5 144" fill="none" stroke="#000000" stroke-width="3" stroke-miterlimit="10" transform="rotate(-90,283.5,144)" pointer-events="all" style="stroke: light-dark(rgb(0, 0, 0), rgb(255, 255, 255));"/>
        </g>
        <g>
            <rect x="321" y="129" width="50" height="30" fill="none" stroke="none" pointer-events="all"/>
        </g>
        <g>
            <g transform="translate(-0.5 -0.5)">
                <switch>
                    <foreignObject style="overflow: visible; text-align: left;" pointer-events="none" width="100%" height="100%" requiredFeatures="http://www.w3.org/TR/SVG11/feature#Extensibility">
                        <div xmlns="http://www.w3.org/1999/xhtml" style="display: flex; align-items: unsafe center; justify-content: unsafe flex-start; width: 48px; height: 1px; padding-top: 144px; margin-left: 323px;">
                            <div style="box-sizing: border-box; font-size: 0; text-align: left; color: #000000; ">
                                <div style="display: inline-block; font-size: 23px; font-family: &quot;Helvetica&quot;; color: light-dark(#000000, #ffffff); line-height: 1.2; pointer-events: all; font-weight: bold; white-space: normal; word-wrap: normal; ">
                                    <mjx-container class="MathJax" jax="SVG">
                                        <svg xmlns="http://www.w3.org/2000/svg" width="2.605ex" height="1.934ex" role="img" focusable="false" viewBox="0 -705 1151.6 855" xmlns:xlink="http://www.w3.org/1999/xlink" style="vertical-align: -0.339ex;">
                                            <defs>
                                                <path id="MJX-41-TEX-I-1D436" d="M50 252Q50 367 117 473T286 641T490 704Q580 704 633 653Q642 643 648 636T656 626L657 623Q660 623 684 649Q691 655 699 663T715 679T725 690L740 705H746Q760 705 760 698Q760 694 728 561Q692 422 692 421Q690 416 687 415T669 413H653Q647 419 647 422Q647 423 648 429T650 449T651 481Q651 552 619 605T510 659Q484 659 454 652T382 628T299 572T226 479Q194 422 175 346T156 222Q156 108 232 58Q280 24 350 24Q441 24 512 92T606 240Q610 253 612 255T628 257Q648 257 648 248Q648 243 647 239Q618 132 523 55T319 -22Q206 -22 128 53T50 252Z"/>
                                                <path id="MJX-41-TEX-N-32" d="M109 429Q82 429 66 447T50 491Q50 562 103 614T235 666Q326 666 387 610T449 465Q449 422 429 383T381 315T301 241Q265 210 201 149L142 93L218 92Q375 92 385 97Q392 99 409 186V189H449V186Q448 183 436 95T421 3V0H50V19V31Q50 38 56 46T86 81Q115 113 136 137Q145 147 170 174T204 211T233 244T261 278T284 308T305 340T320 369T333 401T340 431T343 464Q343 527 309 573T212 619Q179 619 154 602T119 569T109 550Q109 549 114 549Q132 549 151 535T170 489Q170 464 154 447T109 429Z"/>
                                            </defs>
                                            <g stroke="currentColor" fill="currentColor" stroke-width="0" transform="scale(1,-1)">
                                                <g data-mml-node="math">
                                                    <g data-mml-node="mstyle">
                                                        <g data-mml-node="msub">
                                                            <g data-mml-node="mi">
                                                                <use data-c="1D436" xlink:href="#MJX-41-TEX-I-1D436"/>
                                                            </g>
                                                            <g data-mml-node="mrow" transform="translate(748,-150) scale(0.707)">
                                                                <g data-mml-node="mn">
                                                                    <use data-c="32" xlink:href="#MJX-41-TEX-N-32"/>
                                                                </g>
                                                            </g>
                                                        </g>
                                                    </g>
                                                </g>
                                            </g>
                                        </svg>
                                    </mjx-container>
                                </div>
                            </div>
                        </div>
                    </foreignObject>
                    <text x="323" y="151" fill="light-dark(#000000, #ffffff)" font-family="&quot;Helvetica&quot;" font-size="23px" font-weight="bold">
                        `C_{...
                    </text>
                </switch>
            </g>
        </g>
        <g>
            <ellipse cx="171" cy="44" rx="5" ry="5" fill="#000000" stroke="#000000" pointer-events="all" style="fill: light-dark(rgb(0, 0, 0), rgb(237, 237, 237)); stroke: light-dark(rgb(0, 0, 0), rgb(255, 255, 255));"/>
        </g>
        <g>
            <path d="M 36 44 L 26 44 L 31 44 L 21 44" fill="none" stroke="#000000" stroke-width="3" stroke-miterlimit="10" pointer-events="stroke" style="stroke: light-dark(rgb(0, 0, 0), rgb(255, 255, 255));"/>
        </g>
        <g>
            <rect x="76" y="-6" width="20" height="100" fill="none" stroke="none" transform="rotate(180,86,44)" pointer-events="all"/>
            <rect x="54" y="34" width="64" height="20" fill="#ffffff" stroke="#000000" stroke-width="3" transform="rotate(180,86,44)" pointer-events="all" style="fill: light-dark(#ffffff, var(--ge-dark-color, #121212)); stroke: light-dark(rgb(0, 0, 0), rgb(255, 255, 255));"/>
            <path d="M 36 44 L 54 44 M 118 44 L 136 44" fill="none" stroke="#000000" stroke-width="3" stroke-miterlimit="10" transform="rotate(180,86,44)" pointer-events="all" style="stroke: light-dark(rgb(0, 0, 0), rgb(255, 255, 255));"/>
        </g>
        <g>
            <rect x="46" y="4" width="80" height="20" fill="none" stroke="none" pointer-events="all"/>
        </g>
        <g>
            <g transform="translate(-0.5 -0.5)">
                <switch>
                    <foreignObject style="overflow: visible; text-align: left;" pointer-events="none" width="100%" height="100%" requiredFeatures="http://www.w3.org/TR/SVG11/feature#Extensibility">
                        <div xmlns="http://www.w3.org/1999/xhtml" style="display: flex; align-items: unsafe center; justify-content: unsafe center; width: 78px; height: 1px; padding-top: 14px; margin-left: 47px;">
                            <div style="box-sizing: border-box; font-size: 0; text-align: center; color: #000000; ">
                                <div style="display: inline-block; font-size: 23px; font-family: &quot;Helvetica&quot;; color: light-dark(#000000, #ffffff); line-height: 1.2; pointer-events: all; font-weight: bold; white-space: normal; word-wrap: normal; ">
                                    <mjx-container class="MathJax" jax="SVG">
                                        <svg xmlns="http://www.w3.org/2000/svg" width="2.705ex" height="1.885ex" role="img" focusable="false" viewBox="0 -683 1195.6 833" xmlns:xlink="http://www.w3.org/1999/xlink" style="vertical-align: -0.339ex;">
                                            <defs>
                                                <path id="MJX-42-TEX-I-1D445" d="M230 637Q203 637 198 638T193 649Q193 676 204 682Q206 683 378 683Q550 682 564 680Q620 672 658 652T712 606T733 563T739 529Q739 484 710 445T643 385T576 351T538 338L545 333Q612 295 612 223Q612 212 607 162T602 80V71Q602 53 603 43T614 25T640 16Q668 16 686 38T712 85Q717 99 720 102T735 105Q755 105 755 93Q755 75 731 36Q693 -21 641 -21H632Q571 -21 531 4T487 82Q487 109 502 166T517 239Q517 290 474 313Q459 320 449 321T378 323H309L277 193Q244 61 244 59Q244 55 245 54T252 50T269 48T302 46H333Q339 38 339 37T336 19Q332 6 326 0H311Q275 2 180 2Q146 2 117 2T71 2T50 1Q33 1 33 10Q33 12 36 24Q41 43 46 45Q50 46 61 46H67Q94 46 127 49Q141 52 146 61Q149 65 218 339T287 628Q287 635 230 637ZM630 554Q630 586 609 608T523 636Q521 636 500 636T462 637H440Q393 637 386 627Q385 624 352 494T319 361Q319 360 388 360Q466 361 492 367Q556 377 592 426Q608 449 619 486T630 554Z"/>
                                                <path id="MJX-42-TEX-N-31" d="M213 578L200 573Q186 568 160 563T102 556H83V602H102Q149 604 189 617T245 641T273 663Q275 666 285 666Q294 666 302 660V361L303 61Q310 54 315 52T339 48T401 46H427V0H416Q395 3 257 3Q121 3 100 0H88V46H114Q136 46 152 46T177 47T193 50T201 52T207 57T213 61V578Z"/>
                                            </defs>
                                            <g stroke="currentColor" fill="currentColor" stroke-width="0" transform="scale(1,-1)">
                                                <g data-mml-node="math">
                                                    <g data-mml-node="mstyle">
                                                        <g data-mml-node="msub">
                                                            <g data-mml-node="mi">
                                                                <use data-c="1D445" xlink:href="#MJX-42-TEX-I-1D445"/>
                                                            </g>
                                                            <g data-mml-node="mrow" transform="translate(792,-150) scale(0.707)">
                                                                <g data-mml-node="mn">
                                                                    <use data-c="31" xlink:href="#MJX-42-TEX-N-31"/>
                                                                </g>
                                                            </g>
                                                        </g>
                                                    </g>
                                                </g>
                                            </g>
                                        </svg>
                                    </mjx-container>
                                </div>
                            </div>
                        </div>
                    </foreignObject>
                    <text x="86" y="21" fill="light-dark(#000000, #ffffff)" font-family="&quot;Helvetica&quot;" font-size="23px" text-anchor="middle" font-weight="bold">
                        `R_{1}`
                    </text>
                </switch>
            </g>
        </g>
        <g>
            <ellipse cx="283.5" cy="44" rx="5" ry="5" fill="#000000" stroke="#000000" pointer-events="all" style="fill: light-dark(rgb(0, 0, 0), rgb(237, 237, 237)); stroke: light-dark(rgb(0, 0, 0), rgb(255, 255, 255));"/>
        </g>
        <g>
            <ellipse cx="401" cy="44" rx="5" ry="5" fill="#000000" stroke="#000000" pointer-events="all" style="fill: light-dark(rgb(0, 0, 0), rgb(237, 237, 237)); stroke: light-dark(rgb(0, 0, 0), rgb(255, 255, 255));"/>
        </g>
        <g>
            <path d="M 518.5 44 L 563.5 44" fill="none" stroke="#000000" stroke-width="3" stroke-miterlimit="10" pointer-events="stroke" style="stroke: light-dark(rgb(0, 0, 0), rgb(255, 255, 255));"/>
        </g>
        <g>
            <ellipse cx="513.5" cy="44" rx="5" ry="5" fill="#000000" stroke="#000000" pointer-events="all" style="fill: light-dark(rgb(0, 0, 0), rgb(237, 237, 237)); stroke: light-dark(rgb(0, 0, 0), rgb(255, 255, 255));"/>
        </g>
        <g>
            <path d="M 171 49 L 171 94" fill="none" stroke="#000000" stroke-width="3" stroke-miterlimit="10" pointer-events="stroke" style="stroke: light-dark(rgb(0, 0, 0), rgb(255, 255, 255));"/>
        </g>
        <g>
            <path d="M 283.5 49 L 283.5 94" fill="none" stroke="#000000" stroke-width="3" stroke-miterlimit="10" pointer-events="stroke" style="stroke: light-dark(rgb(0, 0, 0), rgb(255, 255, 255));"/>
        </g>
        <g>
            <path d="M 166 44 L 136 44" fill="none" stroke="#000000" stroke-width="3" stroke-miterlimit="10" pointer-events="stroke" style="stroke: light-dark(rgb(0, 0, 0), rgb(255, 255, 255));"/>
        </g>
        <g>
            <path d="M 513.5 204 L 513.19 194" fill="none" stroke="#000000" stroke-width="3" stroke-miterlimit="10" pointer-events="stroke" style="stroke: light-dark(rgb(0, 0, 0), rgb(255, 255, 255));"/>
        </g>
        <g>
            <path d="M 171 204 L 171 194" fill="none" stroke="#000000" stroke-width="3" stroke-miterlimit="10" pointer-events="stroke" style="stroke: light-dark(rgb(0, 0, 0), rgb(255, 255, 255));"/>
        </g>
        <g>
            <path d="M 283.5 204 L 283.5 194" fill="none" stroke="#000000" stroke-width="3" stroke-miterlimit="10" pointer-events="stroke" style="stroke: light-dark(rgb(0, 0, 0), rgb(255, 255, 255));"/>
        </g>
        <g>
            <ellipse cx="573.5" cy="44" rx="10" ry="10" fill="#ffffff" stroke="#000000" stroke-width="3" pointer-events="all" style="fill: light-dark(#ffffff, var(--ge-dark-color, #121212)); stroke: light-dark(rgb(0, 0, 0), rgb(255, 255, 255));"/>
        </g>
        <g>
            <ellipse cx="11" cy="44" rx="10" ry="10" fill="#ffffff" stroke="#000000" stroke-width="3" pointer-events="all" style="fill: light-dark(#ffffff, var(--ge-dark-color, #121212)); stroke: light-dark(rgb(0, 0, 0), rgb(255, 255, 255));"/>
        </g>
        <g>
            <rect x="221" y="-6" width="20" height="100" fill="none" stroke="none" transform="rotate(180,231,44)" pointer-events="all"/>
            <rect x="199" y="34" width="64" height="20" fill="#ffffff" stroke="#000000" stroke-width="3" transform="rotate(180,231,44)" pointer-events="all" style="fill: light-dark(#ffffff, var(--ge-dark-color, #121212)); stroke: light-dark(rgb(0, 0, 0), rgb(255, 255, 255));"/>
            <path d="M 181 44 L 199 44 M 263 44 L 281 44" fill="none" stroke="#000000" stroke-width="3" stroke-miterlimit="10" transform="rotate(180,231,44)" pointer-events="all" style="stroke: light-dark(rgb(0, 0, 0), rgb(255, 255, 255));"/>
        </g>
        <g>
            <rect x="191" y="4" width="80" height="20" fill="none" stroke="none" pointer-events="all"/>
        </g>
        <g>
            <g transform="translate(-0.5 -0.5)">
                <switch>
                    <foreignObject style="overflow: visible; text-align: left;" pointer-events="none" width="100%" height="100%" requiredFeatures="http://www.w3.org/TR/SVG11/feature#Extensibility">
                        <div xmlns="http://www.w3.org/1999/xhtml" style="display: flex; align-items: unsafe center; justify-content: unsafe center; width: 78px; height: 1px; padding-top: 14px; margin-left: 192px;">
                            <div style="box-sizing: border-box; font-size: 0; text-align: center; color: #000000; ">
                                <div style="display: inline-block; font-size: 23px; font-family: &quot;Helvetica&quot;; color: light-dark(#000000, #ffffff); line-height: 1.2; pointer-events: all; font-weight: bold; white-space: normal; word-wrap: normal; ">
                                    <mjx-container class="MathJax" jax="SVG">
                                        <svg xmlns="http://www.w3.org/2000/svg" width="2.705ex" height="1.885ex" role="img" focusable="false" viewBox="0 -683 1195.6 833" xmlns:xlink="http://www.w3.org/1999/xlink" style="vertical-align: -0.339ex;">
                                            <defs>
                                                <path id="MJX-43-TEX-I-1D445" d="M230 637Q203 637 198 638T193 649Q193 676 204 682Q206 683 378 683Q550 682 564 680Q620 672 658 652T712 606T733 563T739 529Q739 484 710 445T643 385T576 351T538 338L545 333Q612 295 612 223Q612 212 607 162T602 80V71Q602 53 603 43T614 25T640 16Q668 16 686 38T712 85Q717 99 720 102T735 105Q755 105 755 93Q755 75 731 36Q693 -21 641 -21H632Q571 -21 531 4T487 82Q487 109 502 166T517 239Q517 290 474 313Q459 320 449 321T378 323H309L277 193Q244 61 244 59Q244 55 245 54T252 50T269 48T302 46H333Q339 38 339 37T336 19Q332 6 326 0H311Q275 2 180 2Q146 2 117 2T71 2T50 1Q33 1 33 10Q33 12 36 24Q41 43 46 45Q50 46 61 46H67Q94 46 127 49Q141 52 146 61Q149 65 218 339T287 628Q287 635 230 637ZM630 554Q630 586 609 608T523 636Q521 636 500 636T462 637H440Q393 637 386 627Q385 624 352 494T319 361Q319 360 388 360Q466 361 492 367Q556 377 592 426Q608 449 619 486T630 554Z"/>
                                                <path id="MJX-43-TEX-N-32" d="M109 429Q82 429 66 447T50 491Q50 562 103 614T235 666Q326 666 387 610T449 465Q449 422 429 383T381 315T301 241Q265 210 201 149L142 93L218 92Q375 92 385 97Q392 99 409 186V189H449V186Q448 183 436 95T421 3V0H50V19V31Q50 38 56 46T86 81Q115 113 136 137Q145 147 170 174T204 211T233 244T261 278T284 308T305 340T320 369T333 401T340 431T343 464Q343 527 309 573T212 619Q179 619 154 602T119 569T109 550Q109 549 114 549Q132 549 151 535T170 489Q170 464 154 447T109 429Z"/>
                                            </defs>
                                            <g stroke="currentColor" fill="currentColor" stroke-width="0" transform="scale(1,-1)">
                                                <g data-mml-node="math">
                                                    <g data-mml-node="mstyle">
                                                        <g data-mml-node="msub">
                                                            <g data-mml-node="mi">
                                                                <use data-c="1D445" xlink:href="#MJX-43-TEX-I-1D445"/>
                                                            </g>
                                                            <g data-mml-node="mrow" transform="translate(792,-150) scale(0.707)">
                                                                <g data-mml-node="mn">
                                                                    <use data-c="32" xlink:href="#MJX-43-TEX-N-32"/>
                                                                </g>
                                                            </g>
                                                        </g>
                                                    </g>
                                                </g>
                                            </g>
                                        </svg>
                                    </mjx-container>
                                </div>
                            </div>
                        </div>
                    </foreignObject>
                    <text x="231" y="21" fill="light-dark(#000000, #ffffff)" font-family="&quot;Helvetica&quot;" font-size="23px" text-anchor="middle" font-weight="bold">
                        `R_{2}`
                    </text>
                </switch>
            </g>
        </g>
        <g>
            <rect x="333.5" y="-6" width="20" height="100" fill="none" stroke="none" transform="rotate(180,343.5,44)" pointer-events="all"/>
            <rect x="311.5" y="34" width="64" height="20" fill="#ffffff" stroke="#000000" stroke-width="3" transform="rotate(180,343.5,44)" pointer-events="all" style="fill: light-dark(#ffffff, var(--ge-dark-color, #121212)); stroke: light-dark(rgb(0, 0, 0), rgb(255, 255, 255));"/>
            <path d="M 293.5 44 L 311.5 44 M 375.5 44 L 393.5 44" fill="none" stroke="#000000" stroke-width="3" stroke-miterlimit="10" transform="rotate(180,343.5,44)" pointer-events="all" style="stroke: light-dark(rgb(0, 0, 0), rgb(255, 255, 255));"/>
        </g>
        <g>
            <rect x="303.5" y="4" width="80" height="20" fill="none" stroke="none" pointer-events="all"/>
        </g>
        <g>
            <g transform="translate(-0.5 -0.5)">
                <switch>
                    <foreignObject style="overflow: visible; text-align: left;" pointer-events="none" width="100%" height="100%" requiredFeatures="http://www.w3.org/TR/SVG11/feature#Extensibility">
                        <div xmlns="http://www.w3.org/1999/xhtml" style="display: flex; align-items: unsafe center; justify-content: unsafe center; width: 78px; height: 1px; padding-top: 14px; margin-left: 305px;">
                            <div style="box-sizing: border-box; font-size: 0; text-align: center; color: #000000; ">
                                <div style="display: inline-block; font-size: 23px; font-family: &quot;Helvetica&quot;; color: light-dark(#000000, #ffffff); line-height: 1.2; pointer-events: all; font-weight: bold; white-space: normal; word-wrap: normal; ">
                                    <mjx-container class="MathJax" jax="SVG">
                                        <svg xmlns="http://www.w3.org/2000/svg" width="2.705ex" height="1.92ex" role="img" focusable="false" viewBox="0 -683 1195.6 848.6" xmlns:xlink="http://www.w3.org/1999/xlink" style="vertical-align: -0.375ex;">
                                            <defs>
                                                <path id="MJX-44-TEX-I-1D445" d="M230 637Q203 637 198 638T193 649Q193 676 204 682Q206 683 378 683Q550 682 564 680Q620 672 658 652T712 606T733 563T739 529Q739 484 710 445T643 385T576 351T538 338L545 333Q612 295 612 223Q612 212 607 162T602 80V71Q602 53 603 43T614 25T640 16Q668 16 686 38T712 85Q717 99 720 102T735 105Q755 105 755 93Q755 75 731 36Q693 -21 641 -21H632Q571 -21 531 4T487 82Q487 109 502 166T517 239Q517 290 474 313Q459 320 449 321T378 323H309L277 193Q244 61 244 59Q244 55 245 54T252 50T269 48T302 46H333Q339 38 339 37T336 19Q332 6 326 0H311Q275 2 180 2Q146 2 117 2T71 2T50 1Q33 1 33 10Q33 12 36 24Q41 43 46 45Q50 46 61 46H67Q94 46 127 49Q141 52 146 61Q149 65 218 339T287 628Q287 635 230 637ZM630 554Q630 586 609 608T523 636Q521 636 500 636T462 637H440Q393 637 386 627Q385 624 352 494T319 361Q319 360 388 360Q466 361 492 367Q556 377 592 426Q608 449 619 486T630 554Z"/>
                                                <path id="MJX-44-TEX-N-33" d="M127 463Q100 463 85 480T69 524Q69 579 117 622T233 665Q268 665 277 664Q351 652 390 611T430 522Q430 470 396 421T302 350L299 348Q299 347 308 345T337 336T375 315Q457 262 457 175Q457 96 395 37T238 -22Q158 -22 100 21T42 130Q42 158 60 175T105 193Q133 193 151 175T169 130Q169 119 166 110T159 94T148 82T136 74T126 70T118 67L114 66Q165 21 238 21Q293 21 321 74Q338 107 338 175V195Q338 290 274 322Q259 328 213 329L171 330L168 332Q166 335 166 348Q166 366 174 366Q202 366 232 371Q266 376 294 413T322 525V533Q322 590 287 612Q265 626 240 626Q208 626 181 615T143 592T132 580H135Q138 579 143 578T153 573T165 566T175 555T183 540T186 520Q186 498 172 481T127 463Z"/>
                                            </defs>
                                            <g stroke="currentColor" fill="currentColor" stroke-width="0" transform="scale(1,-1)">
                                                <g data-mml-node="math">
                                                    <g data-mml-node="mstyle">
                                                        <g data-mml-node="msub">
                                                            <g data-mml-node="mi">
                                                                <use data-c="1D445" xlink:href="#MJX-44-TEX-I-1D445"/>
                                                            </g>
                                                            <g data-mml-node="mrow" transform="translate(792,-150) scale(0.707)">
                                                                <g data-mml-node="mn">
                                                                    <use data-c="33" xlink:href="#MJX-44-TEX-N-33"/>
                                                                </g>
                                                            </g>
                                                        </g>
                                                    </g>
                                                </g>
                                            </g>
                                        </svg>
                                    </mjx-container>
                                </div>
                            </div>
                        </div>
                    </foreignObject>
                    <text x="344" y="21" fill="light-dark(#000000, #ffffff)" font-family="&quot;Helvetica&quot;" font-size="23px" text-anchor="middle" font-weight="bold">
                        `R_{3}`
                    </text>
                </switch>
            </g>
        </g>
        <g>
            <path d="M 281 44 L 278.5 44" fill="none" stroke="#000000" stroke-width="3" stroke-miterlimit="10" pointer-events="stroke" style="stroke: light-dark(rgb(0, 0, 0), rgb(255, 255, 255));"/>
        </g>
        <g>
            <path d="M 181 44 L 176 44" fill="none" stroke="#000000" stroke-width="3" stroke-miterlimit="10" pointer-events="stroke" style="stroke: light-dark(rgb(0, 0, 0), rgb(255, 255, 255));"/>
        </g>
        <g>
            <path d="M 393.5 44 L 396 44" fill="none" stroke="#000000" stroke-width="3" stroke-miterlimit="10" pointer-events="stroke" style="stroke: light-dark(rgb(0, 0, 0), rgb(255, 255, 255));"/>
        </g>
        <g>
            <path d="M 288.5 44 L 293.5 44" fill="none" stroke="#000000" stroke-width="3" stroke-miterlimit="10" pointer-events="stroke" style="stroke: light-dark(rgb(0, 0, 0), rgb(255, 255, 255));"/>
        </g>
        <g/>
        <g>
            <path d="M 513.5 49 L 513.5 71.5 L 513.19 94" fill="none" stroke="#000000" stroke-width="3" stroke-miterlimit="10" pointer-events="stroke" style="stroke: light-dark(rgb(0, 0, 0), rgb(255, 255, 255));"/>
        </g>
        <g>
            <rect x="351" y="114" width="100" height="60" fill="none" stroke="none" transform="rotate(-90,401,144)" pointer-events="all"/>
            <path d="M 351 144 L 396 144 M 406 114 L 406 174 M 396 114 L 396 174 M 406 144 L 451 144" fill="none" stroke="#000000" stroke-width="3" stroke-miterlimit="10" transform="rotate(-90,401,144)" pointer-events="all" style="stroke: light-dark(rgb(0, 0, 0), rgb(255, 255, 255));"/>
        </g>
        <g>
            <rect x="431" y="129" width="50" height="30" fill="none" stroke="none" pointer-events="all"/>
        </g>
        <g>
            <g transform="translate(-0.5 -0.5)">
                <switch>
                    <foreignObject style="overflow: visible; text-align: left;" pointer-events="none" width="100%" height="100%" requiredFeatures="http://www.w3.org/TR/SVG11/feature#Extensibility">
                        <div xmlns="http://www.w3.org/1999/xhtml" style="display: flex; align-items: unsafe center; justify-content: unsafe flex-start; width: 48px; height: 1px; padding-top: 144px; margin-left: 433px;">
                            <div style="box-sizing: border-box; font-size: 0; text-align: left; color: #000000; ">
                                <div style="display: inline-block; font-size: 23px; font-family: &quot;Helvetica&quot;; color: light-dark(#000000, #ffffff); line-height: 1.2; pointer-events: all; font-weight: bold; white-space: normal; word-wrap: normal; ">
                                    <mjx-container class="MathJax" jax="SVG">
                                        <svg xmlns="http://www.w3.org/2000/svg" width="2.605ex" height="1.97ex" role="img" focusable="false" viewBox="0 -705 1151.6 870.6" xmlns:xlink="http://www.w3.org/1999/xlink" style="vertical-align: -0.375ex;">
                                            <defs>
                                                <path id="MJX-45-TEX-I-1D436" d="M50 252Q50 367 117 473T286 641T490 704Q580 704 633 653Q642 643 648 636T656 626L657 623Q660 623 684 649Q691 655 699 663T715 679T725 690L740 705H746Q760 705 760 698Q760 694 728 561Q692 422 692 421Q690 416 687 415T669 413H653Q647 419 647 422Q647 423 648 429T650 449T651 481Q651 552 619 605T510 659Q484 659 454 652T382 628T299 572T226 479Q194 422 175 346T156 222Q156 108 232 58Q280 24 350 24Q441 24 512 92T606 240Q610 253 612 255T628 257Q648 257 648 248Q648 243 647 239Q618 132 523 55T319 -22Q206 -22 128 53T50 252Z"/>
                                                <path id="MJX-45-TEX-N-33" d="M127 463Q100 463 85 480T69 524Q69 579 117 622T233 665Q268 665 277 664Q351 652 390 611T430 522Q430 470 396 421T302 350L299 348Q299 347 308 345T337 336T375 315Q457 262 457 175Q457 96 395 37T238 -22Q158 -22 100 21T42 130Q42 158 60 175T105 193Q133 193 151 175T169 130Q169 119 166 110T159 94T148 82T136 74T126 70T118 67L114 66Q165 21 238 21Q293 21 321 74Q338 107 338 175V195Q338 290 274 322Q259 328 213 329L171 330L168 332Q166 335 166 348Q166 366 174 366Q202 366 232 371Q266 376 294 413T322 525V533Q322 590 287 612Q265 626 240 626Q208 626 181 615T143 592T132 580H135Q138 579 143 578T153 573T165 566T175 555T183 540T186 520Q186 498 172 481T127 463Z"/>
                                            </defs>
                                            <g stroke="currentColor" fill="currentColor" stroke-width="0" transform="scale(1,-1)">
                                                <g data-mml-node="math">
                                                    <g data-mml-node="mstyle">
                                                        <g data-mml-node="msub">
                                                            <g data-mml-node="mi">
                                                                <use data-c="1D436" xlink:href="#MJX-45-TEX-I-1D436"/>
                                                            </g>
                                                            <g data-mml-node="mrow" transform="translate(748,-150) scale(0.707)">
                                                                <g data-mml-node="mn">
                                                                    <use data-c="33" xlink:href="#MJX-45-TEX-N-33"/>
                                                                </g>
                                                            </g>
                                                        </g>
                                                    </g>
                                                </g>
                                            </g>
                                        </svg>
                                    </mjx-container>
                                </div>
                            </div>
                        </div>
                    </foreignObject>
                    <text x="433" y="151" fill="light-dark(#000000, #ffffff)" font-family="&quot;Helvetica&quot;" font-size="23px" font-weight="bold">
                        `C_{...
                    </text>
                </switch>
            </g>
        </g>
        <g>
            <rect x="378.5" y="204" width="45" height="30" fill="none" stroke="none" pointer-events="all"/>
            <path d="M 378.5 214 L 401 234 L 423.5 214 Z" fill="#ffffff" stroke="#000000" stroke-width="3" stroke-miterlimit="10" pointer-events="all" style="fill: light-dark(#ffffff, var(--ge-dark-color, #121212)); stroke: light-dark(rgb(0, 0, 0), rgb(255, 255, 255));"/>
            <path d="M 401 204 L 401 214" fill="none" stroke="#000000" stroke-width="3" stroke-miterlimit="10" pointer-events="all" style="stroke: light-dark(rgb(0, 0, 0), rgb(255, 255, 255));"/>
        </g>
        <g>
            <path d="M 401 204 L 401 194" fill="none" stroke="#000000" stroke-width="3" stroke-miterlimit="10" pointer-events="stroke" style="stroke: light-dark(rgb(0, 0, 0), rgb(255, 255, 255));"/>
        </g>
        <g>
            <path d="M 508.5 44 L 406 44" fill="none" stroke="#000000" stroke-width="3" stroke-miterlimit="10" pointer-events="stroke" style="stroke: light-dark(rgb(0, 0, 0), rgb(255, 255, 255));"/>
        </g>
        <g>
            <path d="M 401 49 L 401 94" fill="none" stroke="#000000" stroke-width="3" stroke-miterlimit="10" pointer-events="stroke" style="stroke: light-dark(rgb(0, 0, 0), rgb(255, 255, 255));"/>
        </g>
    </g>
    <switch>
        <g requiredFeatures="http://www.w3.org/TR/SVG11/feature#Extensibility"/>
        <a transform="translate(0,-5)" xlink:href="https://www.drawio.com/doc/faq/svg-export-text-problems" target="_blank">
            <text text-anchor="middle" font-size="10px" x="50%" y="100%">
                Text is not SVG - cannot display
            </text>
        </a>
    </switch>
</svg>
