<svg host="65bd71144e" xmlns="http://www.w3.org/2000/svg" style="background: transparent; background-color: transparent;" xmlns:xlink="http://www.w3.org/1999/xlink" version="1.1" width="466px" height="335px" viewBox="-0.5 -0.5 466 335" content="&lt;mxfile&gt;&lt;diagram id=&quot;92ocgkLB9jfAPPab8vjS&quot; name=&quot;Page-1&quot;&gt;7VxLc+MoEP41rto9xCXQA+k4zmPmsFs1tXPYmdOUYhFbNbLxyDiJ99cvSCAJgWLZRnYediVl0SAE3V83TdPyyL1ePH/O49X8b5LgbASd5Hnk3owghCCI2BenbEsK8Hy/pMzyNBG0mvAt/Q8LoiOomzTBa6UhJSSj6UolTslyiadUocV5Tp7UZg8kU5+6imdYI3ybxplO/TdN6FxQq4nxii84nc3Fo0OIyopFXDUuCet5nJCnklRMzr0dudc5IbS8Wjxf44xzT/Kl5MBdR201sBwvaa8bgCsGQrdydjhhkxVFktM5mZFlnN3W1Akb9YrXCv6SnNGmm/wR814dVsjJZplUpTldZOwSsEv8nNLvnDz2RemHaMSvb56bhW2j8BXn6QJTnEvakubb783Cj7pXXqy7KkrbZqnd2Zrm5Be+JhmfyE2CH+JNRiu6lLDLKHGWzpZ84qwffvvkEec0ZcD4JCoWaZIULHogS3oXL9KMP/kLzh4xbycqBKIBEGX90Vl8j7NJPP01K1ipN8DL5BNHMiMuyRKXlLs0y8ScdCAIbHDpNggCFp8xYRzJt6xBjrOYpo8q1GOhMbOqXXXrV5KyR0BHqPdV4AgtFdp9BX1H7YTG+QxTcV8NTnbRGEhNKiDbAd9AjO8xzjZixBqeOQtXnfzgEsTPJrMR38seHDOn5IwjAMe+OucACsJTbR9CwYZ5wzIAx+lmsMKYF7kAdS4Ezj8/R2jij9ANu9aYwuZMVdWU2M7wA30J2U/zlOJvq3jKe3piFl7T9wLi4lFAhTx0zdgMuqTRyXVXRZnnaPz2DfyWYjmO3e5u0K04unF++8jmuBZ8kCz9iyv3V7JOaUo4a+8JpWRR2tVyNeBcTOL1vGKpZngagmtLipJVw0Yvnmd8FR7jjEE65+3GOV6na2a119XVT95PkuasSTmkNdlwNhpM4HHCa4gHDqcO3geWT05oLBpFLy4E/VXtKvSRZuBC3cANKFG/08AFexu43Yv3ICZuf66HOtcR7LWsQCtMR29bjdasXZz9ZKqST/FaFkuHqq9p21toEfTaQvNBpAnN83WhuTaEFvVYm9gtbKfUBfQGyx+YPyldzxEbX/Fh9ELqxSj9Cftj475W/33W/FrWcH501AFzTesOQ11XnwXd3Cvo7BO80CMw9cf+hvfwraDRQS0DYvCTgNFs28Cip0Pv5HtLWXPZWw6/tyxNbcsSlbu9lutsbxfaH43+WdAIGliskXkIGmsA/lDwd0FjDzQGRjSic6ERAlto7AbggWbsnWDEkvr1Qhf0Ih1d0Atto6sj4oaQtlFAfqB2Uw5Xi7npnfkItFwGN1K76gjfMQHE20Yz4SQeF+CD0nceUE+k2zCQoQY79O0dG+qeptkzKU90IuXxUdDGu98L74eg2bQZa6BZsO0g+FrzM8Bor+Xiw8PX7Od6p7L9rq8FidoA7rD9BwEYvXVz/IH95n6+jAwZKHiOrO/bdvgMHXCPHKC5Oq7XQnXZ68EYl36bnRDawFLuimIajjU1wXfHjRDQPcpArJM7Av42Qs/V6n+JYr6PKOaRaNSPn5A8czxBHBP6+yUZ9M4o2IsJYehoTIh0lazO25pcCG3Ez3y4mws0T+PlrPMMraGUfU5fasb3jnhDHRaBiSE2wtu+4VASTnSeDH4QuVN//X31V25EFCFV55zVuadNiW1HTYXZsci0PdzD5Bdo8ru6SO8o6Xn9xOfZsMqOLj5Nemd2ztJFI0MUeppMYIcXoq/ixVp9nMSkgoVjPXMDRGNkOJG2Eeh2emQRXMSkKZaqVyZvZ0CR9dgAvT2RdfjH9kQWqjKTYXNFZsMIzJD+NFRURs3bvsQZ7cVlWqGVAw+dSt09eVwGGXYnPmqB+Mi4zJ653sNsw6KoPU0ZEm3oeX0eZz0VEr6Q6+292lzvHft/IdpuLzMaO1VGfXfCtxeOPde0KNrI+oaXrO+Dxai6LUYRWVKON575fWDK6nHhNcZ6PdEY6FZtqJxVaMrutuPP9EvVeh9ehJoV9SrTzw50dGTSu+LoIGTD0dE9GeCG2ttcCAXjCHoAIi/wQx+5aq+9c2sAcPVINkJqbxbTDeSRzRtLeXyP+ngg9IOBUB4aUsaGBGKPINDlPM/GeZ4NhyCKWm/wohBq3sBgp21BeBajZe2N9Etcw64FNGUHlnuxU+Rpox5Bh4tvuqdvavMFG5s+5VCrLXDgSZdbObm3ug0e4AXoY7fIYUt8oSHsN9j7zxCZYk9BaQhW8VKRbPB7w389ZjIt9fITx+/s/g/uJrBL+fVnwRnZll3Nim8RScS/WbOHDMiAYiByee7Kp4nG/eOMp3vl+kg5A9CWsyEQMtQb12x7eR7Xx1qM4OL62HR9SjM+yHJkDnE0P8MtTud5D9NiPrlTHDg3ge5ekP4qwxxRGI0jp/6ANuiZW3Ya0J8nEnd5Ff414/18m9qP+csux/qGQTss5g52SMaK9Y9Algan/i1N9/Z/&lt;/diagram&gt;&lt;/mxfile&gt;">
    <defs>
        <style xmlns="http://www.w3.org/1999/xhtml" id="MJX-SVG-styles">
            mjx-container[jax="SVG"] {
  direction: ltr;
}

mjx-container[jax="SVG"] &gt; svg {
  overflow: visible;
  min-height: 1px;
  min-width: 1px;
}

mjx-container[jax="SVG"] &gt; svg a {
  fill: blue;
  stroke: blue;
}

mjx-container[jax="SVG"][display="true"] {
  display: block;
  text-align: center;
  margin: 1em 0;
}

mjx-container[jax="SVG"][display="true"][width="full"] {
  display: flex;
}

mjx-container[jax="SVG"][justify="left"] {
  text-align: left;
}

mjx-container[jax="SVG"][justify="right"] {
  text-align: right;
}

g[data-mml-node="merror"] &gt; g {
  fill: red;
  stroke: red;
}

g[data-mml-node="merror"] &gt; rect[data-background] {
  fill: yellow;
  stroke: none;
}

g[data-mml-node="mtable"] &gt; line[data-line], svg[data-table] &gt; g &gt; line[data-line] {
  stroke-width: 70px;
  fill: none;
}

g[data-mml-node="mtable"] &gt; rect[data-frame], svg[data-table] &gt; g &gt; rect[data-frame] {
  stroke-width: 70px;
  fill: none;
}

g[data-mml-node="mtable"] &gt; .mjx-dashed, svg[data-table] &gt; g &gt; .mjx-dashed {
  stroke-dasharray: 140;
}

g[data-mml-node="mtable"] &gt; .mjx-dotted, svg[data-table] &gt; g &gt; .mjx-dotted {
  stroke-linecap: round;
  stroke-dasharray: 0,140;
}

g[data-mml-node="mtable"] &gt; g &gt; svg {
  overflow: visible;
}

[jax="SVG"] mjx-tool {
  display: inline-block;
  position: relative;
  width: 0;
  height: 0;
}

[jax="SVG"] mjx-tool &gt; mjx-tip {
  position: absolute;
  top: 0;
  left: 0;
}

mjx-tool &gt; mjx-tip {
  display: inline-block;
  padding: .2em;
  border: 1px solid #888;
  font-size: 70%;
  background-color: #F8F8F8;
  color: black;
  box-shadow: 2px 2px 5px #AAAAAA;
}

g[data-mml-node="maction"][data-toggle] {
  cursor: pointer;
}

mjx-status {
  display: block;
  position: fixed;
  left: 1em;
  bottom: 1em;
  min-width: 25%;
  padding: .2em .4em;
  border: 1px solid #888;
  font-size: 90%;
  background-color: #F8F8F8;
  color: black;
}

foreignObject[data-mjx-xml] {
  font-family: initial;
  line-height: normal;
  overflow: visible;
}

mjx-container[jax="SVG"] path[data-c], mjx-container[jax="SVG"] use[data-c] {
  stroke-width: 3;
}
        </style>
    </defs>
    <g>
        <g/>
        <g>
            <rect x="278.5" y="237" width="50" height="25" fill="none" stroke="none" pointer-events="all"/>
        </g>
        <g>
            <g transform="translate(-0.5 -0.5)">
                <switch>
                    <foreignObject style="overflow: visible; text-align: left;" pointer-events="none" width="100%" height="100%" requiredFeatures="http://www.w3.org/TR/SVG11/feature#Extensibility">
                        <div xmlns="http://www.w3.org/1999/xhtml" style="display: flex; align-items: unsafe center; justify-content: unsafe flex-start; width: 48px; height: 1px; padding-top: 250px; margin-left: 281px;">
                            <div style="box-sizing: border-box; font-size: 0; text-align: left; color: #000000; ">
                                <div style="display: inline-block; font-size: 23px; font-family: &quot;Helvetica&quot;; color: light-dark(#000000, #ffffff); line-height: 1.2; pointer-events: all; font-weight: bold; white-space: normal; word-wrap: normal; ">
                                    <mjx-container class="MathJax" jax="SVG">
                                        <svg xmlns="http://www.w3.org/2000/svg" width="2.705ex" height="1.92ex" role="img" focusable="false" viewBox="0 -683 1195.6 848.6" xmlns:xlink="http://www.w3.org/1999/xlink" style="vertical-align: -0.375ex;">
                                            <defs>
                                                <path id="MJX-742-TEX-I-1D445" d="M230 637Q203 637 198 638T193 649Q193 676 204 682Q206 683 378 683Q550 682 564 680Q620 672 658 652T712 606T733 563T739 529Q739 484 710 445T643 385T576 351T538 338L545 333Q612 295 612 223Q612 212 607 162T602 80V71Q602 53 603 43T614 25T640 16Q668 16 686 38T712 85Q717 99 720 102T735 105Q755 105 755 93Q755 75 731 36Q693 -21 641 -21H632Q571 -21 531 4T487 82Q487 109 502 166T517 239Q517 290 474 313Q459 320 449 321T378 323H309L277 193Q244 61 244 59Q244 55 245 54T252 50T269 48T302 46H333Q339 38 339 37T336 19Q332 6 326 0H311Q275 2 180 2Q146 2 117 2T71 2T50 1Q33 1 33 10Q33 12 36 24Q41 43 46 45Q50 46 61 46H67Q94 46 127 49Q141 52 146 61Q149 65 218 339T287 628Q287 635 230 637ZM630 554Q630 586 609 608T523 636Q521 636 500 636T462 637H440Q393 637 386 627Q385 624 352 494T319 361Q319 360 388 360Q466 361 492 367Q556 377 592 426Q608 449 619 486T630 554Z"/>
                                                <path id="MJX-742-TEX-N-35" d="M164 157Q164 133 148 117T109 101H102Q148 22 224 22Q294 22 326 82Q345 115 345 210Q345 313 318 349Q292 382 260 382H254Q176 382 136 314Q132 307 129 306T114 304Q97 304 95 310Q93 314 93 485V614Q93 664 98 664Q100 666 102 666Q103 666 123 658T178 642T253 634Q324 634 389 662Q397 666 402 666Q410 666 410 648V635Q328 538 205 538Q174 538 149 544L139 546V374Q158 388 169 396T205 412T256 420Q337 420 393 355T449 201Q449 109 385 44T229 -22Q148 -22 99 32T50 154Q50 178 61 192T84 210T107 214Q132 214 148 197T164 157Z"/>
                                            </defs>
                                            <g stroke="currentColor" fill="currentColor" stroke-width="0" transform="scale(1,-1)">
                                                <g data-mml-node="math">
                                                    <g data-mml-node="mstyle">
                                                        <g data-mml-node="msub">
                                                            <g data-mml-node="mi">
                                                                <use data-c="1D445" xlink:href="#MJX-742-TEX-I-1D445"/>
                                                            </g>
                                                            <g data-mml-node="mrow" transform="translate(792,-150) scale(0.707)">
                                                                <g data-mml-node="mn">
                                                                    <use data-c="35" xlink:href="#MJX-742-TEX-N-35"/>
                                                                </g>
                                                            </g>
                                                        </g>
                                                    </g>
                                                </g>
                                            </g>
                                        </svg>
                                    </mjx-container>
                                </div>
                            </div>
                        </div>
                    </foreignObject>
                    <text x="281" y="256" fill="light-dark(#000000, #ffffff)" font-family="&quot;Helvetica&quot;" font-size="23px" font-weight="bold">
                        `R_{...
                    </text>
                </switch>
            </g>
        </g>
        <g>
            <rect x="248.5" y="197" width="20" height="100" fill="none" stroke="none" transform="rotate(90,258.5,247)" pointer-events="all"/>
            <rect x="226.5" y="237" width="64" height="20" fill="#ffffff" stroke="#000000" stroke-width="3" transform="rotate(90,258.5,247)" pointer-events="all" style="fill: light-dark(#ffffff, var(--ge-dark-color, #121212)); stroke: light-dark(rgb(0, 0, 0), rgb(255, 255, 255));"/>
            <path d="M 208.5 247 L 226.5 247 M 290.5 247 L 308.5 247" fill="none" stroke="#000000" stroke-width="3" stroke-miterlimit="10" transform="rotate(90,258.5,247)" pointer-events="all" style="stroke: light-dark(rgb(0, 0, 0), rgb(255, 255, 255));"/>
        </g>
        <g>
            <rect x="303.5" y="137" width="20" height="100" fill="none" stroke="none" transform="rotate(180,313.5,187)" pointer-events="all"/>
            <rect x="281.5" y="177" width="64" height="20" fill="#ffffff" stroke="#000000" stroke-width="3" transform="rotate(180,313.5,187)" pointer-events="all" style="fill: light-dark(#ffffff, var(--ge-dark-color, #121212)); stroke: light-dark(rgb(0, 0, 0), rgb(255, 255, 255));"/>
            <path d="M 263.5 187 L 281.5 187 M 345.5 187 L 363.5 187" fill="none" stroke="#000000" stroke-width="3" stroke-miterlimit="10" transform="rotate(180,313.5,187)" pointer-events="all" style="stroke: light-dark(rgb(0, 0, 0), rgb(255, 255, 255));"/>
        </g>
        <g>
            <rect x="273.5" y="150" width="80" height="20" fill="none" stroke="none" pointer-events="all"/>
        </g>
        <g>
            <g transform="translate(-0.5 -0.5)">
                <switch>
                    <foreignObject style="overflow: visible; text-align: left;" pointer-events="none" width="100%" height="100%" requiredFeatures="http://www.w3.org/TR/SVG11/feature#Extensibility">
                        <div xmlns="http://www.w3.org/1999/xhtml" style="display: flex; align-items: unsafe center; justify-content: unsafe center; width: 78px; height: 1px; padding-top: 160px; margin-left: 275px;">
                            <div style="box-sizing: border-box; font-size: 0; text-align: center; color: #000000; ">
                                <div style="display: inline-block; font-size: 23px; font-family: &quot;Helvetica&quot;; color: light-dark(#000000, #ffffff); line-height: 1.2; pointer-events: all; font-weight: bold; white-space: normal; word-wrap: normal; ">
                                    <mjx-container class="MathJax" jax="SVG">
                                        <svg xmlns="http://www.w3.org/2000/svg" width="2.705ex" height="1.92ex" role="img" focusable="false" viewBox="0 -683 1195.6 848.6" xmlns:xlink="http://www.w3.org/1999/xlink" style="vertical-align: -0.375ex;">
                                            <defs>
                                                <path id="MJX-743-TEX-I-1D445" d="M230 637Q203 637 198 638T193 649Q193 676 204 682Q206 683 378 683Q550 682 564 680Q620 672 658 652T712 606T733 563T739 529Q739 484 710 445T643 385T576 351T538 338L545 333Q612 295 612 223Q612 212 607 162T602 80V71Q602 53 603 43T614 25T640 16Q668 16 686 38T712 85Q717 99 720 102T735 105Q755 105 755 93Q755 75 731 36Q693 -21 641 -21H632Q571 -21 531 4T487 82Q487 109 502 166T517 239Q517 290 474 313Q459 320 449 321T378 323H309L277 193Q244 61 244 59Q244 55 245 54T252 50T269 48T302 46H333Q339 38 339 37T336 19Q332 6 326 0H311Q275 2 180 2Q146 2 117 2T71 2T50 1Q33 1 33 10Q33 12 36 24Q41 43 46 45Q50 46 61 46H67Q94 46 127 49Q141 52 146 61Q149 65 218 339T287 628Q287 635 230 637ZM630 554Q630 586 609 608T523 636Q521 636 500 636T462 637H440Q393 637 386 627Q385 624 352 494T319 361Q319 360 388 360Q466 361 492 367Q556 377 592 426Q608 449 619 486T630 554Z"/>
                                                <path id="MJX-743-TEX-N-36" d="M42 313Q42 476 123 571T303 666Q372 666 402 630T432 550Q432 525 418 510T379 495Q356 495 341 509T326 548Q326 592 373 601Q351 623 311 626Q240 626 194 566Q147 500 147 364L148 360Q153 366 156 373Q197 433 263 433H267Q313 433 348 414Q372 400 396 374T435 317Q456 268 456 210V192Q456 169 451 149Q440 90 387 34T253 -22Q225 -22 199 -14T143 16T92 75T56 172T42 313ZM257 397Q227 397 205 380T171 335T154 278T148 216Q148 133 160 97T198 39Q222 21 251 21Q302 21 329 59Q342 77 347 104T352 209Q352 289 347 316T329 361Q302 397 257 397Z"/>
                                            </defs>
                                            <g stroke="currentColor" fill="currentColor" stroke-width="0" transform="scale(1,-1)">
                                                <g data-mml-node="math">
                                                    <g data-mml-node="mstyle">
                                                        <g data-mml-node="msub">
                                                            <g data-mml-node="mi">
                                                                <use data-c="1D445" xlink:href="#MJX-743-TEX-I-1D445"/>
                                                            </g>
                                                            <g data-mml-node="mrow" transform="translate(792,-150) scale(0.707)">
                                                                <g data-mml-node="mn">
                                                                    <use data-c="36" xlink:href="#MJX-743-TEX-N-36"/>
                                                                </g>
                                                            </g>
                                                        </g>
                                                    </g>
                                                </g>
                                            </g>
                                        </svg>
                                    </mjx-container>
                                </div>
                            </div>
                        </div>
                    </foreignObject>
                    <text x="314" y="167" fill="light-dark(#000000, #ffffff)" font-family="&quot;Helvetica&quot;" font-size="23px" text-anchor="middle" font-weight="bold">
                        `R_{6}`
                    </text>
                </switch>
            </g>
        </g>
        <g>
            <rect x="236.5" y="303" width="45" height="30" fill="none" stroke="none" pointer-events="all"/>
            <path d="M 236.5 313 L 259 333 L 281.5 313 Z" fill="#ffffff" stroke="#000000" stroke-width="3" stroke-miterlimit="10" pointer-events="all" style="fill: light-dark(#ffffff, var(--ge-dark-color, #121212)); stroke: light-dark(rgb(0, 0, 0), rgb(255, 255, 255));"/>
            <path d="M 259 303 L 259 313" fill="none" stroke="#000000" stroke-width="3" stroke-miterlimit="10" pointer-events="all" style="stroke: light-dark(rgb(0, 0, 0), rgb(255, 255, 255));"/>
        </g>
        <g>
            <ellipse cx="259" cy="187" rx="5" ry="5" fill="#000000" stroke="#000000" pointer-events="all" style="fill: light-dark(rgb(0, 0, 0), rgb(237, 237, 237)); stroke: light-dark(rgb(0, 0, 0), rgb(255, 255, 255));"/>
        </g>
        <g>
            <path d="M 259 192 L 258.5 197" fill="none" stroke="#000000" stroke-width="3" stroke-miterlimit="10" pointer-events="stroke" style="stroke: light-dark(rgb(0, 0, 0), rgb(255, 255, 255));"/>
        </g>
        <g>
            <path d="M 258.5 297 L 259 303" fill="none" stroke="#000000" stroke-width="3" stroke-miterlimit="10" pointer-events="stroke" style="stroke: light-dark(rgb(0, 0, 0), rgb(255, 255, 255));"/>
        </g>
        <g>
            <path d="M 413.5 66 L 443.5 66" fill="none" stroke="#000000" stroke-width="3" stroke-miterlimit="10" pointer-events="stroke" style="stroke: light-dark(rgb(0, 0, 0), rgb(255, 255, 255));"/>
        </g>
        <g>
            <path d="M 363.5 187 L 408.53 187 L 408.5 71" fill="none" stroke="#000000" stroke-width="3" stroke-miterlimit="10" pointer-events="stroke" style="stroke: light-dark(rgb(0, 0, 0), rgb(255, 255, 255));"/>
        </g>
        <g/>
        <g>
            <path d="M 281.5 87.5 L 259.07 87.53 L 259 182" fill="none" stroke="#000000" stroke-width="3" stroke-miterlimit="10" pointer-events="stroke" style="stroke: light-dark(rgb(0, 0, 0), rgb(255, 255, 255));"/>
        </g>
        <g>
            <ellipse cx="453.5" cy="66" rx="10" ry="10" fill="#ffffff" stroke="#000000" stroke-width="3" pointer-events="all" style="fill: light-dark(#ffffff, var(--ge-dark-color, #121212)); stroke: light-dark(rgb(0, 0, 0), rgb(255, 255, 255));"/>
        </g>
        <g>
            <ellipse cx="408.5" cy="66" rx="5" ry="5" fill="#000000" stroke="#000000" pointer-events="all" style="fill: light-dark(rgb(0, 0, 0), rgb(237, 237, 237)); stroke: light-dark(rgb(0, 0, 0), rgb(255, 255, 255));"/>
        </g>
        <g/>
        <g>
            <path d="M 301.5 26 L 361.5 66 L 301.5 106 Z" fill="#ffffff" stroke="#000000" stroke-width="3" stroke-miterlimit="10" pointer-events="all" style="fill: light-dark(#ffffff, var(--ge-dark-color, #121212)); stroke: light-dark(rgb(0, 0, 0), rgb(255, 255, 255));"/>
        </g>
        <g>
            <rect x="301.5" y="27" width="20" height="35" fill="none" stroke="none" pointer-events="all"/>
        </g>
        <g>
            <g transform="translate(-0.5 -0.5)">
                <switch>
                    <foreignObject style="overflow: visible; text-align: left;" pointer-events="none" width="100%" height="100%" requiredFeatures="http://www.w3.org/TR/SVG11/feature#Extensibility">
                        <div xmlns="http://www.w3.org/1999/xhtml" style="display: flex; align-items: unsafe center; justify-content: unsafe center; width: 18px; height: 1px; padding-top: 45px; margin-left: 303px;">
                            <div style="box-sizing: border-box; font-size: 0; text-align: center; color: #000000; ">
                                <div style="display: inline-block; font-size: 15px; font-family: &quot;Helvetica&quot;; color: light-dark(#000000, #ffffff); line-height: 1.2; pointer-events: all; font-weight: bold; white-space: normal; word-wrap: normal; ">
                                    +
                                </div>
                            </div>
                        </div>
                    </foreignObject>
                    <text x="312" y="49" fill="light-dark(#000000, #ffffff)" font-family="&quot;Helvetica&quot;" font-size="15px" text-anchor="middle" font-weight="bold">
                        +
                    </text>
                </switch>
            </g>
        </g>
        <g>
            <rect x="301.5" y="67" width="20" height="40" fill="none" stroke="none" pointer-events="all"/>
        </g>
        <g>
            <g transform="translate(-0.5 -0.5)">
                <switch>
                    <foreignObject style="overflow: visible; text-align: left;" pointer-events="none" width="100%" height="100%" requiredFeatures="http://www.w3.org/TR/SVG11/feature#Extensibility">
                        <div xmlns="http://www.w3.org/1999/xhtml" style="display: flex; align-items: unsafe center; justify-content: unsafe center; width: 18px; height: 1px; padding-top: 87px; margin-left: 303px;">
                            <div style="box-sizing: border-box; font-size: 0; text-align: center; color: #000000; ">
                                <div style="display: inline-block; font-size: 15px; font-family: &quot;Helvetica&quot;; color: light-dark(#000000, #ffffff); line-height: 1.2; pointer-events: all; font-weight: bold; white-space: normal; word-wrap: normal; ">
                                    -
                                </div>
                            </div>
                        </div>
                    </foreignObject>
                    <text x="312" y="92" fill="light-dark(#000000, #ffffff)" font-family="&quot;Helvetica&quot;" font-size="15px" text-anchor="middle" font-weight="bold">
                        -
                    </text>
                </switch>
            </g>
        </g>
        <g>
            <rect x="280.5" y="44.5" width="19.75" height="1" fill="#ffffff" stroke="#000000" stroke-width="2" pointer-events="all" style="fill: light-dark(#ffffff, var(--ge-dark-color, #121212)); stroke: light-dark(rgb(0, 0, 0), rgb(255, 255, 255));"/>
        </g>
        <g>
            <rect x="281.5" y="87" width="19.75" height="1" fill="#ffffff" stroke="#000000" stroke-width="2" pointer-events="all" style="fill: light-dark(#ffffff, var(--ge-dark-color, #121212)); stroke: light-dark(rgb(0, 0, 0), rgb(255, 255, 255));"/>
        </g>
        <g>
            <rect x="361.5" y="65" width="19" height="1" fill="#ffffff" stroke="#000000" stroke-width="2" pointer-events="all" style="fill: light-dark(#ffffff, var(--ge-dark-color, #121212)); stroke: light-dark(rgb(0, 0, 0), rgb(255, 255, 255));"/>
        </g>
        <g>
            <path d="M 408.5 66 L 380.53 65.53" fill="none" stroke="#000000" stroke-width="3" stroke-miterlimit="10" pointer-events="stroke" style="stroke: light-dark(rgb(0, 0, 0), rgb(255, 255, 255));"/>
        </g>
        <g/>
        <g>
            <rect x="195.06" y="135" width="48.44" height="25" fill="none" stroke="none" pointer-events="all"/>
        </g>
        <g>
            <g transform="translate(-0.5 -0.5)">
                <switch>
                    <foreignObject style="overflow: visible; text-align: left;" pointer-events="none" width="100%" height="100%" requiredFeatures="http://www.w3.org/TR/SVG11/feature#Extensibility">
                        <div xmlns="http://www.w3.org/1999/xhtml" style="display: flex; align-items: unsafe center; justify-content: unsafe flex-start; width: 46px; height: 1px; padding-top: 148px; margin-left: 197px;">
                            <div style="box-sizing: border-box; font-size: 0; text-align: left; color: #000000; ">
                                <div style="display: inline-block; font-size: 23px; font-family: &quot;Helvetica&quot;; color: light-dark(#000000, #ffffff); line-height: 1.2; pointer-events: all; font-weight: bold; white-space: normal; word-wrap: normal; ">
                                    <mjx-container class="MathJax" jax="SVG">
                                        <svg xmlns="http://www.w3.org/2000/svg" width="2.705ex" height="1.885ex" role="img" focusable="false" viewBox="0 -683 1195.6 833" xmlns:xlink="http://www.w3.org/1999/xlink" style="vertical-align: -0.339ex;">
                                            <defs>
                                                <path id="MJX-744-TEX-I-1D445" d="M230 637Q203 637 198 638T193 649Q193 676 204 682Q206 683 378 683Q550 682 564 680Q620 672 658 652T712 606T733 563T739 529Q739 484 710 445T643 385T576 351T538 338L545 333Q612 295 612 223Q612 212 607 162T602 80V71Q602 53 603 43T614 25T640 16Q668 16 686 38T712 85Q717 99 720 102T735 105Q755 105 755 93Q755 75 731 36Q693 -21 641 -21H632Q571 -21 531 4T487 82Q487 109 502 166T517 239Q517 290 474 313Q459 320 449 321T378 323H309L277 193Q244 61 244 59Q244 55 245 54T252 50T269 48T302 46H333Q339 38 339 37T336 19Q332 6 326 0H311Q275 2 180 2Q146 2 117 2T71 2T50 1Q33 1 33 10Q33 12 36 24Q41 43 46 45Q50 46 61 46H67Q94 46 127 49Q141 52 146 61Q149 65 218 339T287 628Q287 635 230 637ZM630 554Q630 586 609 608T523 636Q521 636 500 636T462 637H440Q393 637 386 627Q385 624 352 494T319 361Q319 360 388 360Q466 361 492 367Q556 377 592 426Q608 449 619 486T630 554Z"/>
                                                <path id="MJX-744-TEX-N-34" d="M462 0Q444 3 333 3Q217 3 199 0H190V46H221Q241 46 248 46T265 48T279 53T286 61Q287 63 287 115V165H28V211L179 442Q332 674 334 675Q336 677 355 677H373L379 671V211H471V165H379V114Q379 73 379 66T385 54Q393 47 442 46H471V0H462ZM293 211V545L74 212L183 211H293Z"/>
                                            </defs>
                                            <g stroke="currentColor" fill="currentColor" stroke-width="0" transform="scale(1,-1)">
                                                <g data-mml-node="math">
                                                    <g data-mml-node="mstyle">
                                                        <g data-mml-node="msub">
                                                            <g data-mml-node="mi">
                                                                <use data-c="1D445" xlink:href="#MJX-744-TEX-I-1D445"/>
                                                            </g>
                                                            <g data-mml-node="mrow" transform="translate(792,-150) scale(0.707)">
                                                                <g data-mml-node="mn">
                                                                    <use data-c="34" xlink:href="#MJX-744-TEX-N-34"/>
                                                                </g>
                                                            </g>
                                                        </g>
                                                    </g>
                                                </g>
                                            </g>
                                        </svg>
                                    </mjx-container>
                                </div>
                            </div>
                        </div>
                    </foreignObject>
                    <text x="197" y="154" fill="light-dark(#000000, #ffffff)" font-family="&quot;Helvetica&quot;" font-size="23px" font-weight="bold">
                        `R_{...
                    </text>
                </switch>
            </g>
        </g>
        <g>
            <rect x="166" y="95" width="19.38" height="100" fill="none" stroke="none" transform="rotate(90,175.69,145)" pointer-events="all"/>
            <rect x="143.69" y="135.31" width="64" height="19.38" fill="#ffffff" stroke="#000000" stroke-width="3" transform="rotate(90,175.69,145)" pointer-events="all" style="fill: light-dark(#ffffff, var(--ge-dark-color, #121212)); stroke: light-dark(rgb(0, 0, 0), rgb(255, 255, 255));"/>
            <path d="M 125.69 145 L 143.69 145 M 207.69 145 L 225.69 145" fill="none" stroke="#000000" stroke-width="3" stroke-miterlimit="10" transform="rotate(90,175.69,145)" pointer-events="all" style="stroke: light-dark(rgb(0, 0, 0), rgb(255, 255, 255));"/>
        </g>
        <g>
            <rect x="153.5" y="205" width="45" height="30" fill="none" stroke="none" pointer-events="all"/>
            <path d="M 153.5 215 L 176 235 L 198.5 215 Z" fill="#ffffff" stroke="#000000" stroke-width="3" stroke-miterlimit="10" pointer-events="all" style="fill: light-dark(#ffffff, var(--ge-dark-color, #121212)); stroke: light-dark(rgb(0, 0, 0), rgb(255, 255, 255));"/>
            <path d="M 176 205 L 176 215" fill="none" stroke="#000000" stroke-width="3" stroke-miterlimit="10" pointer-events="all" style="stroke: light-dark(rgb(0, 0, 0), rgb(255, 255, 255));"/>
        </g>
        <g>
            <path d="M 36 45 L 23.47 45 L 23.5 85" fill="none" stroke="#000000" stroke-width="3" stroke-miterlimit="10" pointer-events="stroke" style="stroke: light-dark(rgb(0, 0, 0), rgb(255, 255, 255));"/>
        </g>
        <g>
            <path d="M 181 45 L 232.27 45 L 283.5 45" fill="none" stroke="#000000" stroke-width="3" stroke-miterlimit="10" pointer-events="stroke" style="stroke: light-dark(rgb(0, 0, 0), rgb(255, 255, 255));"/>
        </g>
        <g>
            <ellipse cx="176" cy="45" rx="5" ry="5" fill="#000000" stroke="#000000" pointer-events="all" style="fill: light-dark(rgb(0, 0, 0), rgb(237, 237, 237)); stroke: light-dark(rgb(0, 0, 0), rgb(255, 255, 255));"/>
        </g>
        <g>
            <path d="M 176 205 L 175.69 195" fill="none" stroke="#000000" stroke-width="3" stroke-miterlimit="10" pointer-events="stroke" style="stroke: light-dark(rgb(0, 0, 0), rgb(255, 255, 255));"/>
        </g>
        <g>
            <path d="M 136 45 L 171 45" fill="none" stroke="#000000" stroke-width="3" stroke-miterlimit="10" pointer-events="stroke" style="stroke: light-dark(rgb(0, 0, 0), rgb(255, 255, 255));"/>
        </g>
        <g>
            <rect x="76" y="-5" width="20" height="100" fill="none" stroke="none" transform="rotate(180,86,45)" pointer-events="all"/>
            <rect x="54" y="35" width="64" height="20" fill="#ffffff" stroke="#000000" stroke-width="3" transform="rotate(180,86,45)" pointer-events="all" style="fill: light-dark(#ffffff, var(--ge-dark-color, #121212)); stroke: light-dark(rgb(0, 0, 0), rgb(255, 255, 255));"/>
            <path d="M 36 45 L 54 45 M 118 45 L 136 45" fill="none" stroke="#000000" stroke-width="3" stroke-miterlimit="10" transform="rotate(180,86,45)" pointer-events="all" style="stroke: light-dark(rgb(0, 0, 0), rgb(255, 255, 255));"/>
        </g>
        <g>
            <rect x="46" y="5" width="80" height="20" fill="none" stroke="none" pointer-events="all"/>
        </g>
        <g>
            <g transform="translate(-0.5 -0.5)">
                <switch>
                    <foreignObject style="overflow: visible; text-align: left;" pointer-events="none" width="100%" height="100%" requiredFeatures="http://www.w3.org/TR/SVG11/feature#Extensibility">
                        <div xmlns="http://www.w3.org/1999/xhtml" style="display: flex; align-items: unsafe center; justify-content: unsafe center; width: 78px; height: 1px; padding-top: 15px; margin-left: 47px;">
                            <div style="box-sizing: border-box; font-size: 0; text-align: center; color: #000000; ">
                                <div style="display: inline-block; font-size: 23px; font-family: &quot;Helvetica&quot;; color: light-dark(#000000, #ffffff); line-height: 1.2; pointer-events: all; font-weight: bold; white-space: normal; word-wrap: normal; ">
                                    <span style="color: light-dark(rgb(0, 0, 0), rgb(237, 237, 237));">
                                        <mjx-container class="MathJax" jax="SVG">
                                            <svg xmlns="http://www.w3.org/2000/svg" width="5.988ex" height="2.213ex" role="img" focusable="false" viewBox="0 -683 2646.5 978" xmlns:xlink="http://www.w3.org/1999/xlink" style="vertical-align: -0.667ex;">
                                                <defs>
                                                    <path id="MJX-745-TEX-I-1D445" d="M230 637Q203 637 198 638T193 649Q193 676 204 682Q206 683 378 683Q550 682 564 680Q620 672 658 652T712 606T733 563T739 529Q739 484 710 445T643 385T576 351T538 338L545 333Q612 295 612 223Q612 212 607 162T602 80V71Q602 53 603 43T614 25T640 16Q668 16 686 38T712 85Q717 99 720 102T735 105Q755 105 755 93Q755 75 731 36Q693 -21 641 -21H632Q571 -21 531 4T487 82Q487 109 502 166T517 239Q517 290 474 313Q459 320 449 321T378 323H309L277 193Q244 61 244 59Q244 55 245 54T252 50T269 48T302 46H333Q339 38 339 37T336 19Q332 6 326 0H311Q275 2 180 2Q146 2 117 2T71 2T50 1Q33 1 33 10Q33 12 36 24Q41 43 46 45Q50 46 61 46H67Q94 46 127 49Q141 52 146 61Q149 65 218 339T287 628Q287 635 230 637ZM630 554Q630 586 609 608T523 636Q521 636 500 636T462 637H440Q393 637 386 627Q385 624 352 494T319 361Q319 360 388 360Q466 361 492 367Q556 377 592 426Q608 449 619 486T630 554Z"/>
                                                    <path id="MJX-745-TEX-I-1D452" d="M39 168Q39 225 58 272T107 350T174 402T244 433T307 442H310Q355 442 388 420T421 355Q421 265 310 237Q261 224 176 223Q139 223 138 221Q138 219 132 186T125 128Q125 81 146 54T209 26T302 45T394 111Q403 121 406 121Q410 121 419 112T429 98T420 82T390 55T344 24T281 -1T205 -11Q126 -11 83 42T39 168ZM373 353Q367 405 305 405Q272 405 244 391T199 357T170 316T154 280T149 261Q149 260 169 260Q282 260 327 284T373 353Z"/>
                                                    <path id="MJX-745-TEX-I-1D45E" d="M33 157Q33 258 109 349T280 441Q340 441 372 389Q373 390 377 395T388 406T404 418Q438 442 450 442Q454 442 457 439T460 434Q460 425 391 149Q320 -135 320 -139Q320 -147 365 -148H390Q396 -156 396 -157T393 -175Q389 -188 383 -194H370Q339 -192 262 -192Q234 -192 211 -192T174 -192T157 -193Q143 -193 143 -185Q143 -182 145 -170Q149 -154 152 -151T172 -148Q220 -148 230 -141Q238 -136 258 -53T279 32Q279 33 272 29Q224 -10 172 -10Q117 -10 75 30T33 157ZM352 326Q329 405 277 405Q242 405 210 374T160 293Q131 214 119 129Q119 126 119 118T118 106Q118 61 136 44T179 26Q233 26 290 98L298 109L352 326Z"/>
                                                    <path id="MJX-745-TEX-N-2C" d="M78 35T78 60T94 103T137 121Q165 121 187 96T210 8Q210 -27 201 -60T180 -117T154 -158T130 -185T117 -194Q113 -194 104 -185T95 -172Q95 -168 106 -156T131 -126T157 -76T173 -3V9L172 8Q170 7 167 6T161 3T152 1T140 0Q113 0 96 17Z"/>
                                                    <path id="MJX-745-TEX-I-1D453" d="M118 -162Q120 -162 124 -164T135 -167T147 -168Q160 -168 171 -155T187 -126Q197 -99 221 27T267 267T289 382V385H242Q195 385 192 387Q188 390 188 397L195 425Q197 430 203 430T250 431Q298 431 298 432Q298 434 307 482T319 540Q356 705 465 705Q502 703 526 683T550 630Q550 594 529 578T487 561Q443 561 443 603Q443 622 454 636T478 657L487 662Q471 668 457 668Q445 668 434 658T419 630Q412 601 403 552T387 469T380 433Q380 431 435 431Q480 431 487 430T498 424Q499 420 496 407T491 391Q489 386 482 386T428 385H372L349 263Q301 15 282 -47Q255 -132 212 -173Q175 -205 139 -205Q107 -205 81 -186T55 -132Q55 -95 76 -78T118 -61Q162 -61 162 -103Q162 -122 151 -136T127 -157L118 -162Z"/>
                                                    <path id="MJX-745-TEX-I-1D459" d="M117 59Q117 26 142 26Q179 26 205 131Q211 151 215 152Q217 153 225 153H229Q238 153 241 153T246 151T248 144Q247 138 245 128T234 90T214 43T183 6T137 -11Q101 -11 70 11T38 85Q38 97 39 102L104 360Q167 615 167 623Q167 626 166 628T162 632T157 634T149 635T141 636T132 637T122 637Q112 637 109 637T101 638T95 641T94 647Q94 649 96 661Q101 680 107 682T179 688Q194 689 213 690T243 693T254 694Q266 694 266 686Q266 675 193 386T118 83Q118 81 118 75T117 65V59Z"/>
                                                    <path id="MJX-745-TEX-N-31" d="M213 578L200 573Q186 568 160 563T102 556H83V602H102Q149 604 189 617T245 641T273 663Q275 666 285 666Q294 666 302 660V361L303 61Q310 54 315 52T339 48T401 46H427V0H416Q395 3 257 3Q121 3 100 0H88V46H114Q136 46 152 46T177 47T193 50T201 52T207 57T213 61V578Z"/>
                                                </defs>
                                                <g stroke="currentColor" fill="currentColor" stroke-width="0" transform="scale(1,-1)">
                                                    <g data-mml-node="math">
                                                        <g data-mml-node="mstyle">
                                                            <g data-mml-node="msub">
                                                                <g data-mml-node="mi">
                                                                    <use data-c="1D445" xlink:href="#MJX-745-TEX-I-1D445"/>
                                                                </g>
                                                                <g data-mml-node="mrow" transform="translate(792,-150) scale(0.707)">
                                                                    <g data-mml-node="mi">
                                                                        <use data-c="1D452" xlink:href="#MJX-745-TEX-I-1D452"/>
                                                                    </g>
                                                                    <g data-mml-node="mi" transform="translate(466,0)">
                                                                        <use data-c="1D45E" xlink:href="#MJX-745-TEX-I-1D45E"/>
                                                                    </g>
                                                                    <g data-mml-node="mo" transform="translate(926,0)">
                                                                        <use data-c="2C" xlink:href="#MJX-745-TEX-N-2C"/>
                                                                    </g>
                                                                    <g data-mml-node="mi" transform="translate(1204,0)">
                                                                        <use data-c="1D453" xlink:href="#MJX-745-TEX-I-1D453"/>
                                                                    </g>
                                                                    <g data-mml-node="mi" transform="translate(1754,0)">
                                                                        <use data-c="1D459" xlink:href="#MJX-745-TEX-I-1D459"/>
                                                                    </g>
                                                                    <g data-mml-node="mn" transform="translate(2052,0)">
                                                                        <use data-c="31" xlink:href="#MJX-745-TEX-N-31"/>
                                                                    </g>
                                                                </g>
                                                            </g>
                                                        </g>
                                                    </g>
                                                </g>
                                            </svg>
                                        </mjx-container>
                                    </span>
                                </div>
                            </div>
                        </div>
                    </foreignObject>
                    <text x="86" y="22" fill="light-dark(#000000, #ffffff)" font-family="&quot;Helvetica&quot;" font-size="23px" text-anchor="middle" font-weight="bold">
                        `R_{eq,...
                    </text>
                </switch>
            </g>
        </g>
        <g>
            <path d="M 136 45 L 138.5 45" fill="none" stroke="#000000" stroke-width="3" stroke-miterlimit="10" pointer-events="stroke" style="stroke: light-dark(rgb(0, 0, 0), rgb(255, 255, 255));"/>
        </g>
        <g/>
        <g>
            <path d="M 176 50 L 176 72.47 L 175.69 95" fill="none" stroke="#000000" stroke-width="3" stroke-miterlimit="10" pointer-events="stroke" style="stroke: light-dark(rgb(0, 0, 0), rgb(255, 255, 255));"/>
        </g>
        <g>
            <rect x="1" y="85" width="45" height="30" fill="none" stroke="none" pointer-events="all"/>
            <path d="M 1 95 L 23.5 115 L 46 95 Z" fill="#ffffff" stroke="#000000" stroke-width="3" stroke-miterlimit="10" pointer-events="all" style="fill: light-dark(#ffffff, var(--ge-dark-color, #121212)); stroke: light-dark(rgb(0, 0, 0), rgb(255, 255, 255));"/>
            <path d="M 23.5 85 L 23.5 95" fill="none" stroke="#000000" stroke-width="3" stroke-miterlimit="10" pointer-events="all" style="stroke: light-dark(rgb(0, 0, 0), rgb(255, 255, 255));"/>
        </g>
    </g>
    <switch>
        <g requiredFeatures="http://www.w3.org/TR/SVG11/feature#Extensibility"/>
        <a transform="translate(0,-5)" xlink:href="https://www.drawio.com/doc/faq/svg-export-text-problems" target="_blank">
            <text text-anchor="middle" font-size="10px" x="50%" y="100%">
                Text is not SVG - cannot display
            </text>
        </a>
    </switch>
</svg>
